<svg width="1200" height="630" viewBox="0 0 1200 630" fill="none" xmlns="http://www.w3.org/2000/svg">
<g clip-path="url(#clip0_1_2)">
<path d="M1200 0H0V630H1200V0Z" fill="url(#paint0_linear_1_2)"/>
<path d="M605 117L501 325" stroke="url(#paint1_linear_1_2)" stroke-width="4" stroke-linecap="round"/>
<path d="M605 117L709 325" stroke="url(#paint2_linear_1_2)" stroke-width="4" stroke-linecap="round"/>
<path d="M605 143C619.359 143 631 131.359 631 117C631 102.641 619.359 91 605 91C590.641 91 579 102.641 579 117C579 131.359 590.641 143 605 143Z" fill="url(#paint3_linear_1_2)"/>
<path d="M501 351C515.359 351 527 339.359 527 325C527 310.641 515.359 299 501 299C486.641 299 475 310.641 475 325C475 339.359 486.641 351 501 351Z" fill="url(#paint4_linear_1_2)"/>
<path d="M709 351C723.359 351 735 339.359 735 325C735 310.641 723.359 299 709 299C694.641 299 683 310.641 683 325C683 339.359 694.641 351 709 351Z" fill="url(#paint5_linear_1_2)"/>
<path d="M605 267.8C616.488 267.8 625.8 258.488 625.8 247C625.8 235.512 616.488 226.2 605 226.2C593.513 226.2 584.2 235.512 584.2 247C584.2 258.488 593.513 267.8 605 267.8Z" fill="url(#paint6_linear_1_2)"/>
<path opacity="0.8" d="M553 189.8C557.308 189.8 560.8 186.308 560.8 182C560.8 177.692 557.308 174.2 553 174.2C548.692 174.2 545.2 177.692 545.2 182C545.2 186.308 548.692 189.8 553 189.8Z" fill="#E11D48"/>
<path opacity="0.8" d="M657 189.8C661.308 189.8 664.8 186.308 664.8 182C664.8 177.692 661.308 174.2 657 174.2C652.692 174.2 649.2 177.692 649.2 182C649.2 186.308 652.692 189.8 657 189.8Z" fill="#E11D48"/>
<path opacity="0.8" d="M605 306.8C609.308 306.8 612.8 303.308 612.8 299C612.8 294.692 609.308 291.2 605 291.2C600.692 291.2 597.2 294.692 597.2 299C597.2 303.308 600.692 306.8 605 306.8Z" fill="#E11D48"/>
<path d="M370.419 495L386.552 445.2H399.677L415.57 495H403.847L393.798 461.128C393.524 460.216 393.297 459.419 393.114 458.735C392.955 458.029 392.807 457.414 392.67 456.89H392.533C392.419 457.414 392.271 458.029 392.089 458.735C391.907 459.419 391.69 460.205 391.439 461.094L381.767 495H370.419ZM379.647 484.951L381.391 477.056H404.154L406.034 484.951H379.647ZM411.708 454.565V445.234H450.331V454.565H437.035V495H425.038V454.565H411.708ZM454.057 495V445.234H486.322V454.565H465.438V465.537H483.314V473.877H465.438V485.942H486.835V495H454.057ZM490.834 495V445.234H511.479C516.651 445.234 520.593 446.784 523.305 449.883C526.039 452.959 527.406 457.049 527.406 462.153C527.406 467.235 526.062 471.325 523.373 474.424C520.707 477.523 516.674 479.072 511.273 479.072H502.66V495H490.834ZM502.66 470.938H508.744C511.296 470.938 513.074 470.129 514.076 468.511C515.079 466.87 515.58 464.831 515.58 462.393C515.58 459.954 515.079 457.926 514.076 456.309C513.074 454.668 511.296 453.848 508.744 453.848H502.66V470.938ZM548.222 471.177V468.921C548.222 460.353 549.851 454.144 553.109 450.293C556.391 446.419 560.674 444.482 565.961 444.482C571.133 444.482 575.087 445.884 577.821 448.687C580.556 451.466 581.946 455.352 581.991 460.342V461.333H578.778V460.376C578.756 456.138 577.673 452.891 575.531 450.635C573.389 448.379 570.199 447.251 565.961 447.251C561.381 447.251 557.815 448.983 555.263 452.446C552.711 455.887 551.435 461.322 551.435 468.75V471.348C551.435 478.776 552.733 484.233 555.331 487.72C557.951 491.206 561.518 492.949 566.029 492.949C570.222 492.949 573.378 491.833 575.497 489.6C577.616 487.344 578.71 484.097 578.778 479.858V478.901H581.991V480.098C581.9 484.86 580.51 488.654 577.821 491.479C575.132 494.305 571.156 495.718 565.893 495.718C560.378 495.718 556.049 493.781 552.904 489.907C549.783 486.011 548.222 479.767 548.222 471.177ZM586.264 479.346V478.457C586.264 473.535 587.562 469.582 590.16 466.597C592.781 463.612 596.301 462.119 600.722 462.119C605.188 462.119 608.72 463.612 611.317 466.597C613.915 469.582 615.214 473.547 615.214 478.491V479.346C615.214 484.336 613.892 488.324 611.249 491.309C608.629 494.271 605.131 495.752 600.756 495.752C596.358 495.752 592.838 494.259 590.194 491.274C587.574 488.289 586.264 484.313 586.264 479.346ZM589.408 478.389V479.517C589.408 483.436 590.388 486.672 592.348 489.224C594.33 491.753 597.121 493.018 600.722 493.018C604.368 493.018 607.17 491.753 609.13 489.224C611.09 486.694 612.069 483.447 612.069 479.482V478.389C612.069 474.424 611.101 471.188 609.164 468.682C607.25 466.152 604.436 464.888 600.722 464.888C597.053 464.888 594.25 466.152 592.313 468.682C590.377 471.188 589.408 474.424 589.408 478.389ZM621.64 495V462.871H624.545L624.579 467.964H624.613C625.684 466.209 627.154 464.808 629.022 463.76C630.914 462.712 633.09 462.188 635.551 462.188C638.718 462.188 641.225 463.053 643.07 464.785C644.939 466.494 645.873 469.331 645.873 473.296V495H642.797V473.501C642.797 470.448 642.079 468.26 640.644 466.938C639.208 465.617 637.191 464.956 634.594 464.956C632.338 464.956 630.355 465.56 628.646 466.768C626.938 467.975 625.627 469.479 624.716 471.279V495H621.64ZM652.743 485.19H655.819V485.874C655.819 488.381 656.594 490.203 658.144 491.343C659.716 492.459 661.903 493.018 664.706 493.018C667.554 493.04 669.73 492.505 671.234 491.411C672.738 490.317 673.49 488.757 673.49 486.729C673.49 484.792 672.807 483.356 671.439 482.422C670.072 481.465 667.6 480.519 664.022 479.585C660.422 478.651 657.79 477.523 656.127 476.201C654.464 474.857 653.632 472.954 653.632 470.493C653.632 467.941 654.623 465.913 656.605 464.409C658.588 462.882 661.277 462.119 664.672 462.119C668.067 462.119 670.779 462.917 672.807 464.512C674.835 466.084 675.849 468.408 675.849 471.484V472.065H672.807V471.519C672.807 469.149 672.1 467.451 670.688 466.426C669.275 465.4 667.258 464.888 664.638 464.888C662.086 464.888 660.126 465.366 658.759 466.323C657.414 467.257 656.742 468.613 656.742 470.391C656.742 472.031 657.369 473.307 658.622 474.219C659.898 475.13 662.268 476.042 665.731 476.953C669.286 477.887 671.975 479.049 673.798 480.439C675.644 481.829 676.566 483.846 676.566 486.489C676.566 489.292 675.587 491.536 673.627 493.223C671.667 494.909 668.705 495.752 664.74 495.752C660.798 495.752 657.813 494.897 655.785 493.188C653.757 491.479 652.743 489.041 652.743 485.874V485.19ZM683.334 484.575V462.871H686.41V484.575C686.41 487.629 687.105 489.782 688.495 491.035C689.908 492.288 691.902 492.915 694.477 492.915C696.755 492.915 698.749 492.311 700.458 491.104C702.167 489.896 703.5 488.381 704.457 486.558V462.871H707.533V495H704.696L704.594 489.873H704.56C703.443 491.582 701.939 492.983 700.048 494.077C698.157 495.148 696.003 495.684 693.588 495.684C690.398 495.684 687.891 494.829 686.068 493.12C684.245 491.411 683.334 488.563 683.334 484.575ZM716.146 495V444.722H719.188V495H716.146ZM723.7 465.571V462.871H741.063V465.571H723.7ZM729.511 486.318V464.204V463.794V451.284H732.587V486.523C732.587 489.098 732.997 490.819 733.817 491.685C734.66 492.55 735.868 492.983 737.44 492.983C738.101 492.983 738.716 492.926 739.286 492.812C739.856 492.699 740.357 492.55 740.79 492.368V495.137C740.403 495.296 739.867 495.433 739.184 495.547C738.5 495.684 737.725 495.752 736.859 495.752C734.604 495.752 732.815 495.08 731.493 493.735C730.172 492.368 729.511 489.896 729.511 486.318ZM746.43 495V462.871H749.506V495H746.43ZM745.746 451.113C745.746 450.498 745.94 449.974 746.327 449.541C746.715 449.108 747.261 448.892 747.968 448.892C748.697 448.892 749.244 449.108 749.608 449.541C749.996 449.951 750.189 450.475 750.189 451.113C750.189 451.751 749.996 452.287 749.608 452.72C749.221 453.153 748.674 453.369 747.968 453.369C747.239 453.369 746.68 453.153 746.293 452.72C745.928 452.287 745.746 451.751 745.746 451.113ZM758.222 495V462.871H761.127L761.161 467.964H761.195C762.266 466.209 763.736 464.808 765.604 463.76C767.496 462.712 769.672 462.188 772.133 462.188C775.3 462.188 777.807 463.053 779.652 464.785C781.521 466.494 782.455 469.331 782.455 473.296V495H779.379V473.501C779.379 470.448 778.661 468.26 777.226 466.938C775.79 465.617 773.773 464.956 771.176 464.956C768.92 464.956 766.938 465.56 765.229 466.768C763.52 467.975 762.209 469.479 761.298 471.279V495H758.222ZM790.009 505.767L791.684 503.306C792.777 504.285 794.201 505.129 795.956 505.835C797.711 506.564 799.704 506.929 801.938 506.929C805.014 506.929 807.509 505.881 809.423 503.784C811.337 501.711 812.294 498.464 812.294 494.043V490.317C811.291 491.776 809.89 493.018 808.09 494.043C806.29 495.046 804.114 495.547 801.562 495.547C797.551 495.547 794.372 494.054 792.025 491.069C789.701 488.084 788.539 484.165 788.539 479.312V478.389C788.539 473.604 789.701 469.707 792.025 466.699C794.35 463.691 797.562 462.188 801.664 462.188C804.102 462.188 806.267 462.712 808.158 463.76C810.049 464.785 811.451 466.027 812.362 467.485H812.431L812.465 462.871H815.37V494.043C815.37 499.215 814.151 503.123 811.713 505.767C809.298 508.41 806.005 509.731 801.835 509.731C799.351 509.731 797.107 509.355 795.102 508.604C793.096 507.852 791.399 506.906 790.009 505.767ZM791.684 479.38C791.684 483.413 792.584 486.66 794.384 489.121C796.184 491.582 798.85 492.801 802.382 492.778C804.82 492.778 806.894 492.163 808.603 490.933C810.312 489.702 811.542 488.278 812.294 486.66V471.006C811.519 469.411 810.266 468.009 808.534 466.802C806.825 465.571 804.763 464.956 802.348 464.956C798.816 464.956 796.15 466.198 794.35 468.682C792.572 471.143 791.684 474.355 791.684 478.32V479.38Z" fill="white"/>
<path opacity="0.8" d="M646.8 391H563.2C561.985 391 561 391.895 561 393C561 394.105 561.985 395 563.2 395H646.8C648.015 395 649 394.105 649 393C649 391.895 648.015 391 646.8 391Z" fill="#E11D48"/>
<path d="M310.703 545L315.723 516.562H316.699L311.68 545H310.703ZM320.098 517.48L320.273 516.562H339.922L339.766 517.48H330.43L325.566 545H324.59L329.453 517.48H320.098ZM346.914 531.152L347.07 530.254C347.943 525.306 349.538 521.706 351.855 519.453C354.173 517.201 356.927 516.074 360.117 516.074C362.943 516.074 365.046 516.849 366.426 518.398C367.806 519.948 368.353 522.22 368.066 525.215L367.988 525.723H367.012L367.07 525.273C367.344 522.539 366.862 520.482 365.625 519.102C364.388 517.708 362.493 517.012 359.941 517.012C356.999 517.012 354.486 518.079 352.402 520.215C350.319 522.337 348.887 525.618 348.105 530.059L347.891 531.328C347.057 536.003 347.318 539.375 348.672 541.445C350.026 543.516 352.155 544.551 355.059 544.551C357.936 544.551 360.202 543.77 361.855 542.207C363.522 540.645 364.609 538.672 365.117 536.289L365.195 535.84H366.191L366.094 536.348C365.482 539.108 364.225 541.322 362.324 542.988C360.436 544.655 357.956 545.488 354.883 545.488C351.732 545.488 349.388 544.375 347.852 542.148C346.328 539.922 346.016 536.257 346.914 531.152ZM368.984 535.625L369.062 535.234C369.596 532.253 370.794 529.87 372.656 528.086C374.518 526.289 376.797 525.391 379.492 525.391C382.214 525.391 384.186 526.289 385.41 528.086C386.634 529.87 386.986 532.253 386.465 535.234L386.387 535.625C385.866 538.62 384.655 541.016 382.754 542.812C380.853 544.596 378.587 545.488 375.957 545.488C373.314 545.488 371.361 544.59 370.098 542.793C368.835 540.996 368.464 538.607 368.984 535.625ZM370.078 535.117L369.941 535.801C369.486 538.366 369.792 540.469 370.859 542.109C371.927 543.75 373.678 544.57 376.113 544.57C378.561 544.57 380.599 543.75 382.227 542.109C383.867 540.469 384.915 538.359 385.371 535.781L385.508 535.117C385.951 532.526 385.664 530.41 384.648 528.77C383.633 527.129 381.855 526.309 379.316 526.309C376.816 526.309 374.759 527.129 373.145 528.77C371.543 530.41 370.521 532.526 370.078 535.117ZM388.848 545L392.207 525.879H393.105L392.539 529.258C393.411 528.19 394.518 527.298 395.859 526.582C397.201 525.853 398.691 525.488 400.332 525.488C402.285 525.488 403.737 525.983 404.688 526.973C405.651 527.949 405.931 529.557 405.527 531.797L403.203 545H402.227L404.57 531.836C404.896 529.922 404.642 528.535 403.809 527.676C402.975 526.816 401.667 526.387 399.883 526.387C398.294 526.387 396.855 526.777 395.566 527.559C394.277 528.34 393.216 529.277 392.383 530.371L389.805 545H388.848ZM408.32 539.297H409.277L409.238 539.57C408.939 541.289 409.264 542.552 410.215 543.359C411.178 544.167 412.643 544.577 414.609 544.59C416.602 544.59 418.177 544.186 419.336 543.379C420.495 542.572 421.191 541.504 421.426 540.176C421.66 538.835 421.387 537.852 420.605 537.227C419.824 536.602 418.307 536.009 416.055 535.449C413.841 534.889 412.311 534.219 411.465 533.438C410.618 532.656 410.312 531.582 410.547 530.215C410.82 528.743 411.621 527.572 412.949 526.699C414.29 525.827 415.977 525.391 418.008 525.391C420.052 525.391 421.589 525.879 422.617 526.855C423.646 527.819 424.004 529.173 423.691 530.918L423.652 531.172H422.695L422.715 530.996C422.988 529.447 422.702 528.275 421.855 527.48C421.009 526.686 419.668 526.289 417.832 526.289C416.022 526.289 414.577 526.628 413.496 527.305C412.415 527.982 411.764 528.919 411.543 530.117C411.348 531.25 411.602 532.135 412.305 532.773C413.021 533.398 414.473 533.984 416.66 534.531C418.887 535.091 420.475 535.768 421.426 536.562C422.376 537.357 422.715 538.535 422.441 540.098C422.168 541.699 421.361 543.001 420.02 544.004C418.678 544.993 416.816 545.488 414.434 545.488C412.09 545.488 410.391 544.98 409.336 543.965C408.281 542.936 407.923 541.471 408.262 539.57L408.32 539.297ZM426.797 539.082L429.121 525.879H430.098L427.773 539.043C427.435 540.97 427.669 542.357 428.477 543.203C429.297 544.049 430.599 544.479 432.383 544.492C433.958 544.492 435.404 544.108 436.719 543.34C438.047 542.559 439.128 541.621 439.961 540.527L442.539 525.879H443.516L440.156 545H439.258L439.824 541.641H439.805C438.932 542.708 437.806 543.6 436.426 544.316C435.059 545.033 433.555 545.391 431.914 545.391C429.974 545.391 428.535 544.902 427.598 543.926C426.673 542.936 426.406 541.322 426.797 539.082ZM445.547 545L450.703 515.82H451.66L446.504 545H445.547ZM452.559 526.758L452.695 525.879H463.184L463.047 526.758H452.559ZM454.043 539.98L456.445 526.406L456.484 526.211L457.617 519.785H458.594L455 540.176C454.727 541.803 454.818 542.943 455.273 543.594C455.742 544.245 456.504 544.57 457.559 544.57C458.027 544.57 458.451 544.538 458.828 544.473C459.206 544.408 459.531 544.329 459.805 544.238L459.648 545.117C459.414 545.208 459.082 545.293 458.652 545.371C458.236 545.449 457.747 545.488 457.188 545.488C455.951 545.488 455.026 545.085 454.414 544.277C453.815 543.457 453.691 542.025 454.043 539.98ZM463.281 545L466.66 525.879H467.617L464.258 545H463.281ZM467.441 519.121C467.48 518.861 467.591 518.646 467.773 518.477C467.969 518.307 468.216 518.223 468.516 518.223C468.802 518.223 469.004 518.307 469.121 518.477C469.251 518.646 469.29 518.861 469.238 519.121C469.199 519.382 469.082 519.596 468.887 519.766C468.704 519.935 468.47 520.02 468.184 520.02C467.897 520.02 467.689 519.935 467.559 519.766C467.441 519.596 467.402 519.382 467.441 519.121ZM469.707 545L473.066 525.879H473.965L473.398 529.258C474.271 528.19 475.378 527.298 476.719 526.582C478.06 525.853 479.551 525.488 481.191 525.488C483.145 525.488 484.596 525.983 485.547 526.973C486.51 527.949 486.79 529.557 486.387 531.797L484.062 545H483.086L485.43 531.836C485.755 529.922 485.501 528.535 484.668 527.676C483.835 526.816 482.526 526.387 480.742 526.387C479.154 526.387 477.715 526.777 476.426 527.559C475.137 528.34 474.076 529.277 473.242 530.371L470.664 545H469.707ZM487.773 551.23L488.418 550.43C489.03 551.055 489.87 551.556 490.938 551.934C492.018 552.311 493.216 552.5 494.531 552.5C496.745 552.5 498.594 551.816 500.078 550.449C501.576 549.082 502.559 547.09 503.027 544.473L503.457 542.051C502.689 542.936 501.66 543.717 500.371 544.395C499.095 545.059 497.624 545.391 495.957 545.391C493.483 545.391 491.686 544.499 490.566 542.715C489.447 540.918 489.147 538.542 489.668 535.586L489.746 535.137C490.254 532.246 491.38 529.915 493.125 528.145C494.87 526.374 496.966 525.488 499.414 525.488C501.055 525.488 502.422 525.833 503.516 526.523C504.622 527.214 505.391 528.001 505.82 528.887L506.387 525.879H507.285L504.004 544.473C503.496 547.415 502.376 549.642 500.645 551.152C498.926 552.663 496.849 553.418 494.414 553.418C492.943 553.418 491.641 553.21 490.508 552.793C489.388 552.389 488.477 551.868 487.773 551.23ZM490.625 535.645C490.156 538.327 490.404 540.475 491.367 542.09C492.344 543.691 494.01 544.492 496.367 544.492C498.008 544.492 499.46 544.115 500.723 543.359C501.999 542.604 502.982 541.732 503.672 540.742L505.566 530.078C505.215 529.115 504.525 528.262 503.496 527.52C502.467 526.764 501.133 526.387 499.492 526.387C497.161 526.387 495.228 527.188 493.691 528.789C492.168 530.378 491.178 532.467 490.723 535.059L490.625 535.645ZM517.363 537.656C517.676 535.885 518.509 534.368 519.863 533.105C521.217 531.829 523.092 530.521 525.488 529.18L528.672 527.383C529.87 526.693 530.827 525.924 531.543 525.078C532.272 524.232 532.747 523.151 532.969 521.836C533.216 520.43 533.06 519.251 532.5 518.301C531.953 517.337 530.957 516.855 529.512 516.855C528.066 516.855 526.797 517.37 525.703 518.398C524.609 519.427 523.919 520.768 523.633 522.422C523.438 523.516 523.47 524.557 523.73 525.547C524.004 526.523 524.635 527.767 525.625 529.277L535.957 545H534.766L524.844 529.785C523.789 528.145 523.105 526.81 522.793 525.781C522.493 524.753 522.454 523.633 522.676 522.422C523.014 520.469 523.835 518.906 525.137 517.734C526.452 516.562 527.956 515.977 529.648 515.977C531.341 515.977 532.559 516.523 533.301 517.617C534.043 518.711 534.264 520.104 533.965 521.797C533.704 523.281 533.151 524.512 532.305 525.488C531.471 526.465 530.43 527.311 529.18 528.027L525.918 529.883C523.626 531.198 521.855 532.428 520.605 533.574C519.368 534.72 518.613 536.074 518.34 537.637C518.001 539.551 518.333 541.178 519.336 542.52C520.352 543.848 521.914 544.512 524.023 544.512C526.914 544.512 529.486 543.372 531.738 541.094C533.991 538.802 535.456 535.716 536.133 531.836H537.09C536.387 535.82 534.811 539.076 532.363 541.602C529.928 544.128 527.096 545.391 523.867 545.391C521.419 545.391 519.629 544.635 518.496 543.125C517.363 541.615 516.986 539.792 517.363 537.656ZM547.09 537.793L547.246 536.855H548.242L548.105 537.676C547.715 539.85 548.118 541.543 549.316 542.754C550.527 543.952 552.363 544.551 554.824 544.551C557.246 544.551 559.238 543.991 560.801 542.871C562.376 541.738 563.333 540.208 563.672 538.281C563.997 536.406 563.73 534.928 562.871 533.848C562.012 532.767 560.104 531.732 557.148 530.742C554.31 529.779 552.357 528.717 551.289 527.559C550.221 526.4 549.87 524.798 550.234 522.754C550.612 520.605 551.608 518.958 553.223 517.812C554.85 516.654 556.999 516.074 559.668 516.074C562.428 516.074 564.375 516.823 565.508 518.32C566.641 519.818 567.038 521.523 566.699 523.438L566.562 524.277H565.566L565.703 523.457C566.016 521.738 565.697 520.234 564.746 518.945C563.796 517.656 562.051 517.012 559.512 517.012C557.116 517.012 555.215 517.513 553.809 518.516C552.415 519.505 551.549 520.931 551.211 522.793C550.898 524.538 551.217 525.924 552.168 526.953C553.118 527.969 555.052 528.965 557.969 529.941C560.768 530.892 562.676 531.986 563.691 533.223C564.707 534.447 565.026 536.126 564.648 538.262C564.258 540.501 563.177 542.266 561.406 543.555C559.635 544.844 557.376 545.488 554.629 545.488C551.934 545.488 549.902 544.798 548.535 543.418C547.168 542.038 546.686 540.163 547.09 537.793ZM567.617 535.625L567.695 535.234C568.229 532.253 569.427 529.87 571.289 528.086C573.151 526.289 575.43 525.391 578.125 525.391C580.846 525.391 582.819 526.289 584.043 528.086C585.267 529.87 585.618 532.253 585.098 535.234L585.02 535.625C584.499 538.62 583.288 541.016 581.387 542.812C579.486 544.596 577.22 545.488 574.59 545.488C571.947 545.488 569.993 544.59 568.73 542.793C567.467 540.996 567.096 538.607 567.617 535.625ZM568.711 535.117L568.574 535.801C568.118 538.366 568.424 540.469 569.492 542.109C570.56 543.75 572.311 544.57 574.746 544.57C577.194 544.57 579.232 543.75 580.859 542.109C582.5 540.469 583.548 538.359 584.004 535.781L584.141 535.117C584.583 532.526 584.297 530.41 583.281 528.77C582.266 527.129 580.488 526.309 577.949 526.309C575.449 526.309 573.392 527.129 571.777 528.77C570.176 530.41 569.154 532.526 568.711 535.117ZM588.711 545L592.715 522.305C593.118 519.961 593.932 518.229 595.156 517.109C596.393 515.977 597.936 515.41 599.785 515.41C600.189 515.41 600.586 515.443 600.977 515.508C601.38 515.56 601.712 515.625 601.973 515.703L601.68 516.562C601.471 516.51 601.178 516.452 600.801 516.387C600.436 516.322 600.065 516.289 599.688 516.289C598.099 516.289 596.79 516.771 595.762 517.734C594.746 518.685 594.043 520.241 593.652 522.402L592.988 526.23L592.949 526.387L589.668 545H588.711ZM588.281 526.758L588.438 525.879H592.402H592.695H598.066L597.91 526.758H588.281ZM598.184 526.758L598.32 525.879H608.809L608.672 526.758H598.184ZM599.668 539.98L602.07 526.406L602.109 526.211L603.242 519.785H604.219L600.625 540.176C600.352 541.803 600.443 542.943 600.898 543.594C601.367 544.245 602.129 544.57 603.184 544.57C603.652 544.57 604.076 544.538 604.453 544.473C604.831 544.408 605.156 544.329 605.43 544.238L605.273 545.117C605.039 545.208 604.707 545.293 604.277 545.371C603.861 545.449 603.372 545.488 602.812 545.488C601.576 545.488 600.651 545.085 600.039 544.277C599.44 543.457 599.316 542.025 599.668 539.98ZM610.02 525.879H610.977L613.184 542.168C613.236 542.493 613.281 542.832 613.32 543.184C613.372 543.522 613.405 543.828 613.418 544.102H613.516C613.594 543.828 613.698 543.522 613.828 543.184C613.971 542.845 614.121 542.507 614.277 542.168L622.363 525.879H623.535L625.82 542.188C625.846 542.5 625.872 542.832 625.898 543.184C625.938 543.522 625.957 543.822 625.957 544.082H626.055C626.146 543.822 626.27 543.522 626.426 543.184C626.595 542.832 626.758 542.5 626.914 542.188L634.863 525.879H635.918L626.504 545H625.371L623.086 528.75C623.06 528.477 623.027 528.158 622.988 527.793C622.949 527.428 622.91 527.116 622.871 526.855H622.754C622.637 527.116 622.487 527.428 622.305 527.793C622.135 528.158 621.986 528.477 621.855 528.75L613.848 545H612.695L610.02 525.879ZM635.312 539.805C635.651 537.956 636.602 536.523 638.164 535.508C639.727 534.479 641.725 533.965 644.16 533.965H650.098L650.488 531.719C650.814 529.922 650.612 528.568 649.883 527.656C649.154 526.732 647.773 526.27 645.742 526.27C643.698 526.27 642.103 526.699 640.957 527.559C639.811 528.405 639.128 529.434 638.906 530.645L638.809 531.27H637.852L637.969 530.625C638.229 529.167 639.082 527.93 640.527 526.914C641.973 525.898 643.776 525.391 645.938 525.391C648.112 525.391 649.674 525.898 650.625 526.914C651.576 527.93 651.862 529.492 651.484 531.602L649.941 540.312C649.785 541.224 649.72 542.077 649.746 542.871C649.772 543.665 649.863 544.316 650.02 544.824L649.98 545H649.062C648.906 544.583 648.802 544.03 648.75 543.34C648.711 542.65 648.737 541.96 648.828 541.27C648.19 542.363 647.161 543.314 645.742 544.121C644.323 544.915 642.63 545.312 640.664 545.312C638.75 545.312 637.298 544.857 636.309 543.945C635.319 543.021 634.987 541.641 635.312 539.805ZM636.289 539.766C636.016 541.302 636.283 542.467 637.09 543.262C637.897 544.043 639.219 544.434 641.055 544.434C643.073 544.434 644.87 543.893 646.445 542.812C648.021 541.732 648.939 540.456 649.199 538.984L649.961 534.785H644.141C641.875 534.785 640.065 535.228 638.711 536.113C637.37 536.986 636.562 538.203 636.289 539.766ZM654.434 545L657.793 525.879H658.691L658.145 529.102H658.164C658.919 528.125 659.883 527.266 661.055 526.523C662.227 525.768 663.49 525.391 664.844 525.391C665.247 525.391 665.625 525.43 665.977 525.508C666.341 525.573 666.589 525.638 666.719 525.703L666.562 526.66C666.315 526.595 666.022 526.53 665.684 526.465C665.345 526.4 664.974 526.367 664.57 526.367C663.281 526.367 662.051 526.745 660.879 527.5C659.707 528.242 658.743 529.186 657.988 530.332L655.41 545H654.434ZM666.484 535.625L666.562 535.234C667.083 532.266 668.249 529.883 670.059 528.086C671.882 526.289 674.076 525.391 676.641 525.391C679.154 525.391 680.905 526.178 681.895 527.754C682.897 529.316 683.171 531.387 682.715 533.965L682.598 534.668H667.227L667.383 533.809H681.777L681.816 533.555C682.194 531.406 681.96 529.661 681.113 528.32C680.28 526.979 678.717 526.309 676.426 526.309C674.095 526.309 672.148 527.122 670.586 528.75C669.023 530.378 668.014 532.5 667.559 535.117L667.441 535.742C666.973 538.346 667.246 540.469 668.262 542.109C669.277 543.75 671.081 544.57 673.672 544.57C675.195 544.57 676.523 544.29 677.656 543.73C678.802 543.158 679.753 542.454 680.508 541.621L681.094 542.246C680.365 543.066 679.355 543.815 678.066 544.492C676.777 545.156 675.254 545.488 673.496 545.488C670.71 545.488 668.711 544.59 667.5 542.793C666.302 540.996 665.964 538.607 666.484 535.625ZM692.793 545L697.812 516.562H704.512C708.079 516.562 710.69 517.819 712.344 520.332C713.997 522.832 714.453 526.159 713.711 530.312L713.555 531.25C712.773 535.651 711.061 539.043 708.418 541.426C705.788 543.809 702.812 545 699.492 545H692.793ZM693.945 544.082H699.668C702.728 544.082 705.456 542.969 707.852 540.742C710.26 538.516 711.829 535.345 712.559 531.23L712.715 530.371C713.392 526.452 712.995 523.327 711.523 520.996C710.052 518.652 707.663 517.48 704.355 517.48H698.652L693.945 544.082ZM716.211 535.625L716.289 535.234C716.81 532.266 717.975 529.883 719.785 528.086C721.608 526.289 723.802 525.391 726.367 525.391C728.88 525.391 730.632 526.178 731.621 527.754C732.624 529.316 732.897 531.387 732.441 533.965L732.324 534.668H716.953L717.109 533.809H731.504L731.543 533.555C731.921 531.406 731.686 529.661 730.84 528.32C730.007 526.979 728.444 526.309 726.152 526.309C723.822 526.309 721.875 527.122 720.312 528.75C718.75 530.378 717.741 532.5 717.285 535.117L717.168 535.742C716.699 538.346 716.973 540.469 717.988 542.109C719.004 543.75 720.807 544.57 723.398 544.57C724.922 544.57 726.25 544.29 727.383 543.73C728.529 543.158 729.479 542.454 730.234 541.621L730.82 542.246C730.091 543.066 729.082 543.815 727.793 544.492C726.504 545.156 724.98 545.488 723.223 545.488C720.436 545.488 718.438 544.59 717.227 542.793C716.029 540.996 715.69 538.607 716.211 535.625ZM735 525.879H735.996L739.57 542.402C739.635 542.689 739.694 542.975 739.746 543.262C739.798 543.535 739.837 543.802 739.863 544.062H739.941C740.059 543.802 740.182 543.535 740.312 543.262C740.443 542.975 740.586 542.689 740.742 542.402L750.156 525.879H751.211L740.234 545H739.258L735 525.879ZM750.859 535.625L750.938 535.234C751.458 532.266 752.624 529.883 754.434 528.086C756.257 526.289 758.451 525.391 761.016 525.391C763.529 525.391 765.28 526.178 766.27 527.754C767.272 529.316 767.546 531.387 767.09 533.965L766.973 534.668H751.602L751.758 533.809H766.152L766.191 533.555C766.569 531.406 766.335 529.661 765.488 528.32C764.655 526.979 763.092 526.309 760.801 526.309C758.47 526.309 756.523 527.122 754.961 528.75C753.398 530.378 752.389 532.5 751.934 535.117L751.816 535.742C751.348 538.346 751.621 540.469 752.637 542.109C753.652 543.75 755.456 544.57 758.047 544.57C759.57 544.57 760.898 544.29 762.031 543.73C763.177 543.158 764.128 542.454 764.883 541.621L765.469 542.246C764.74 543.066 763.73 543.815 762.441 544.492C761.152 545.156 759.629 545.488 757.871 545.488C755.085 545.488 753.086 544.59 751.875 542.793C750.677 540.996 750.339 538.607 750.859 535.625ZM768.867 545L774.023 515.82H774.98L769.824 545H768.867ZM775.664 535.625L775.742 535.234C776.276 532.253 777.474 529.87 779.336 528.086C781.198 526.289 783.477 525.391 786.172 525.391C788.893 525.391 790.866 526.289 792.09 528.086C793.314 529.87 793.665 532.253 793.145 535.234L793.066 535.625C792.546 538.62 791.335 541.016 789.434 542.812C787.533 544.596 785.267 545.488 782.637 545.488C779.993 545.488 778.04 544.59 776.777 542.793C775.514 540.996 775.143 538.607 775.664 535.625ZM776.758 535.117L776.621 535.801C776.165 538.366 776.471 540.469 777.539 542.109C778.607 543.75 780.358 544.57 782.793 544.57C785.241 544.57 787.279 543.75 788.906 542.109C790.547 540.469 791.595 538.359 792.051 535.781L792.188 535.117C792.63 532.526 792.344 530.41 791.328 528.77C790.312 527.129 788.535 526.309 785.996 526.309C783.496 526.309 781.439 527.129 779.824 528.77C778.223 530.41 777.201 532.526 776.758 535.117ZM794.043 553.418L798.887 525.879H799.785L799.277 528.887H799.297C800.039 528.001 801.081 527.214 802.422 526.523C803.776 525.833 805.273 525.488 806.914 525.488C809.362 525.488 811.139 526.374 812.246 528.145C813.366 529.902 813.672 532.233 813.164 535.137L813.086 535.586C812.565 538.542 811.432 540.918 809.688 542.715C807.943 544.499 805.82 545.391 803.32 545.391C801.68 545.391 800.332 545.059 799.277 544.395C798.223 543.73 797.467 542.956 797.012 542.07L795 553.418H794.043ZM797.227 540.742C797.591 541.732 798.275 542.604 799.277 543.359C800.293 544.115 801.621 544.492 803.262 544.492C805.618 544.492 807.559 543.691 809.082 542.09C810.618 540.475 811.621 538.327 812.09 535.645L812.188 535.059C812.643 532.467 812.396 530.378 811.445 528.789C810.508 527.188 808.867 526.387 806.523 526.387C804.896 526.387 803.424 526.764 802.109 527.52C800.807 528.262 799.811 529.115 799.121 530.078L797.227 540.742ZM815.566 545L818.926 525.879H819.824L819.258 529.219C820.156 528.06 821.211 527.148 822.422 526.484C823.633 525.82 825.007 525.488 826.543 525.488C828.014 525.501 829.199 525.846 830.098 526.523C830.996 527.188 831.471 528.105 831.523 529.277C832.292 528.223 833.327 527.331 834.629 526.602C835.931 525.859 837.37 525.488 838.945 525.488C840.729 525.488 842.09 525.996 843.027 527.012C843.978 528.027 844.258 529.622 843.867 531.797L841.543 545H840.586L842.91 531.836C843.236 529.961 842.988 528.587 842.168 527.715C841.361 526.829 840.156 526.387 838.555 526.387C837.057 526.4 835.697 526.803 834.473 527.598C833.249 528.392 832.298 529.316 831.621 530.371L829.043 545H828.066L830.488 531.328C830.775 529.674 830.501 528.444 829.668 527.637C828.848 526.816 827.65 526.4 826.074 526.387C824.603 526.387 823.281 526.751 822.109 527.48C820.951 528.21 819.948 529.173 819.102 530.371L816.523 545H815.566ZM847.109 535.625L847.188 535.234C847.708 532.266 848.874 529.883 850.684 528.086C852.507 526.289 854.701 525.391 857.266 525.391C859.779 525.391 861.53 526.178 862.52 527.754C863.522 529.316 863.796 531.387 863.34 533.965L863.223 534.668H847.852L848.008 533.809H862.402L862.441 533.555C862.819 531.406 862.585 529.661 861.738 528.32C860.905 526.979 859.342 526.309 857.051 526.309C854.72 526.309 852.773 527.122 851.211 528.75C849.648 530.378 848.639 532.5 848.184 535.117L848.066 535.742C847.598 538.346 847.871 540.469 848.887 542.109C849.902 543.75 851.706 544.57 854.297 544.57C855.82 544.57 857.148 544.29 858.281 543.73C859.427 543.158 860.378 542.454 861.133 541.621L861.719 542.246C860.99 543.066 859.98 543.815 858.691 544.492C857.402 545.156 855.879 545.488 854.121 545.488C851.335 545.488 849.336 544.59 848.125 542.793C846.927 540.996 846.589 538.607 847.109 535.625ZM865.059 545L868.418 525.879H869.316L868.75 529.258C869.622 528.19 870.729 527.298 872.07 526.582C873.411 525.853 874.902 525.488 876.543 525.488C878.496 525.488 879.948 525.983 880.898 526.973C881.862 527.949 882.142 529.557 881.738 531.797L879.414 545H878.438L880.781 531.836C881.107 529.922 880.853 528.535 880.02 527.676C879.186 526.816 877.878 526.387 876.094 526.387C874.505 526.387 873.066 526.777 871.777 527.559C870.488 528.34 869.427 529.277 868.594 530.371L866.016 545H865.059ZM885.215 526.758L885.352 525.879H895.84L895.703 526.758H885.215ZM886.699 539.98L889.102 526.406L889.141 526.211L890.273 519.785H891.25L887.656 540.176C887.383 541.803 887.474 542.943 887.93 543.594C888.398 544.245 889.16 544.57 890.215 544.57C890.684 544.57 891.107 544.538 891.484 544.473C891.862 544.408 892.188 544.329 892.461 544.238L892.305 545.117C892.07 545.208 891.738 545.293 891.309 545.371C890.892 545.449 890.404 545.488 889.844 545.488C888.607 545.488 887.682 545.085 887.07 544.277C886.471 543.457 886.348 542.025 886.699 539.98Z" fill="#94A3B8"/>
</g>
<defs>
<linearGradient id="paint0_linear_1_2" x1="0" y1="0" x2="51856.9" y2="98775.1" gradientUnits="userSpaceOnUse">
<stop stop-color="#0F172A"/>
<stop offset="1" stop-color="#1E293B"/>
</linearGradient>
<linearGradient id="paint1_linear_1_2" x1="501" y1="117" x2="17141" y2="8437" gradientUnits="userSpaceOnUse">
<stop stop-color="#E11D48"/>
<stop offset="1" stop-color="#BE123C"/>
</linearGradient>
<linearGradient id="paint2_linear_1_2" x1="605" y1="117" x2="17245" y2="8437" gradientUnits="userSpaceOnUse">
<stop stop-color="#E11D48"/>
<stop offset="1" stop-color="#BE123C"/>
</linearGradient>
<linearGradient id="paint3_linear_1_2" x1="579" y1="91" x2="5779" y2="5291" gradientUnits="userSpaceOnUse">
<stop stop-color="#E11D48"/>
<stop offset="1" stop-color="#BE123C"/>
</linearGradient>
<linearGradient id="paint4_linear_1_2" x1="475" y1="299" x2="5675" y2="5499" gradientUnits="userSpaceOnUse">
<stop stop-color="#E11D48"/>
<stop offset="1" stop-color="#BE123C"/>
</linearGradient>
<linearGradient id="paint5_linear_1_2" x1="683" y1="299" x2="5883" y2="5499" gradientUnits="userSpaceOnUse">
<stop stop-color="#E11D48"/>
<stop offset="1" stop-color="#BE123C"/>
</linearGradient>
<linearGradient id="paint6_linear_1_2" x1="584.2" y1="226.2" x2="4744.2" y2="4386.2" gradientUnits="userSpaceOnUse">
<stop stop-color="#E11D48"/>
<stop offset="1" stop-color="#BE123C"/>
</linearGradient>
<clipPath id="clip0_1_2">
<rect width="1200" height="630" fill="white"/>
</clipPath>
</defs>
</svg>
