<svg width="1200" height="630" viewBox="0 0 1200 630" fill="none" xmlns="http://www.w3.org/2000/svg">
<g clip-path="url(#clip0_1_2)">
<path d="M1200 0H0V630H1200V0Z" fill="url(#paint0_linear_1_2)"/>
<path d="M601 156L513 332" stroke="url(#paint1_linear_1_2)" stroke-width="4" stroke-linecap="round"/>
<path d="M601 156L689 332" stroke="url(#paint2_linear_1_2)" stroke-width="4" stroke-linecap="round"/>
<path d="M601 178C613.15 178 623 168.15 623 156C623 143.85 613.15 134 601 134C588.85 134 579 143.85 579 156C579 168.15 588.85 178 601 178Z" fill="url(#paint3_linear_1_2)"/>
<path d="M513 354C525.15 354 535 344.15 535 332C535 319.85 525.15 310 513 310C500.85 310 491 319.85 491 332C491 344.15 500.85 354 513 354Z" fill="url(#paint4_linear_1_2)"/>
<path d="M689 354C701.15 354 711 344.15 711 332C711 319.85 701.15 310 689 310C676.85 310 667 319.85 667 332C667 344.15 676.85 354 689 354Z" fill="url(#paint5_linear_1_2)"/>
<path d="M601 283.6C610.72 283.6 618.6 275.72 618.6 266C618.6 256.28 610.72 248.4 601 248.4C591.28 248.4 583.4 256.28 583.4 266C583.4 275.72 591.28 283.6 601 283.6Z" fill="url(#paint6_linear_1_2)"/>
<path opacity="0.8" d="M557 217.6C560.645 217.6 563.6 214.645 563.6 211C563.6 207.355 560.645 204.4 557 204.4C553.355 204.4 550.4 207.355 550.4 211C550.4 214.645 553.355 217.6 557 217.6Z" fill="#E11D48"/>
<path opacity="0.8" d="M645 217.6C648.645 217.6 651.6 214.645 651.6 211C651.6 207.355 648.645 204.4 645 204.4C641.355 204.4 638.4 207.355 638.4 211C638.4 214.645 641.355 217.6 645 217.6Z" fill="#E11D48"/>
<path opacity="0.8" d="M601 316.6C604.645 316.6 607.6 313.645 607.6 310C607.6 306.355 604.645 303.4 601 303.4C597.355 303.4 594.4 306.355 594.4 310C594.4 313.645 597.355 316.6 601 316.6Z" fill="#E11D48"/>
<path d="M434.512 449L446.499 413.38H455.532L467.446 449H459.146L451.504 424.586C451.309 423.967 451.146 423.406 451.016 422.901C450.902 422.397 450.796 421.941 450.698 421.534H450.576C450.495 421.941 450.389 422.397 450.259 422.901C450.129 423.406 449.974 423.967 449.795 424.586L442.373 449H434.512ZM441.372 441.676L442.715 436.036H458.853L460.293 441.676H441.372ZM464.59 419.898V413.453H492.422V419.898H482.656V449H474.355V419.898H464.59ZM495.474 449V413.453H518.74V419.898H503.457V427.955H516.567V433.814H503.457V442.726H519.058V449H495.474ZM522.524 449V413.453H537.002C540.794 413.453 543.691 414.535 545.693 416.7C547.712 418.849 548.721 421.746 548.721 425.392C548.721 429.037 547.728 431.943 545.742 434.107C543.757 436.272 540.811 437.354 536.904 437.354H530.752V449H522.524ZM530.752 431.617H535.342C537.279 431.617 538.621 431.048 539.37 429.908C540.135 428.753 540.518 427.288 540.518 425.514C540.518 423.756 540.135 422.315 539.37 421.192C538.621 420.053 537.279 419.483 535.342 419.483H530.752V431.617ZM563.906 432.032V430.323C563.906 424.334 565.127 419.931 567.568 417.115C570.01 414.283 573.167 412.867 577.041 412.867C580.833 412.867 583.739 413.901 585.757 415.968C587.791 418.035 588.849 420.818 588.931 424.317V424.928H586.245V424.342C586.196 421.493 585.407 419.256 583.877 417.628C582.363 416 580.076 415.187 577.017 415.187C573.794 415.187 571.247 416.415 569.375 418.873C567.52 421.314 566.592 425.107 566.592 430.25V432.13C566.592 437.257 567.536 441.065 569.424 443.556C571.328 446.03 573.875 447.267 577.065 447.267C580.076 447.267 582.339 446.453 583.853 444.825C585.366 443.198 586.164 440.96 586.245 438.111V437.525H588.931L588.906 438.233C588.792 441.619 587.743 444.353 585.757 446.437C583.771 448.52 580.85 449.562 576.992 449.562C572.988 449.562 569.806 448.146 567.446 445.313C565.086 442.481 563.906 438.054 563.906 432.032ZM592.227 437.525V436.866C592.227 433.253 593.195 430.348 595.132 428.15C597.069 425.937 599.673 424.83 602.944 424.83C606.248 424.83 608.861 425.937 610.781 428.15C612.718 430.348 613.687 433.253 613.687 436.866V437.525C613.687 441.155 612.71 444.076 610.757 446.29C608.82 448.487 606.216 449.586 602.944 449.586C599.689 449.586 597.085 448.479 595.132 446.266C593.195 444.052 592.227 441.139 592.227 437.525ZM594.839 436.817V437.599C594.839 440.431 595.539 442.766 596.938 444.605C598.338 446.428 600.34 447.34 602.944 447.34C605.581 447.34 607.591 446.428 608.975 444.605C610.374 442.766 611.074 440.431 611.074 437.599V436.817C611.074 433.985 610.382 431.658 608.999 429.835C607.632 428.012 605.614 427.101 602.944 427.101C600.291 427.101 598.273 428.012 596.89 429.835C595.522 431.658 594.839 433.985 594.839 436.817ZM618.569 449V425.416H620.962L621.011 429.029H621.06C621.873 427.776 622.956 426.783 624.307 426.051C625.674 425.302 627.228 424.928 628.97 424.928C631.313 424.928 633.169 425.571 634.536 426.856C635.92 428.126 636.611 430.25 636.611 433.229V449H634.023V433.326C634.023 431.145 633.511 429.583 632.485 428.639C631.476 427.678 630.044 427.198 628.188 427.198C626.577 427.198 625.161 427.63 623.94 428.492C622.736 429.339 621.8 430.413 621.133 431.715V449H618.569ZM641.641 441.871H644.204V442.262C644.204 444.02 644.774 445.305 645.913 446.119C647.052 446.933 648.615 447.34 650.601 447.34C652.635 447.356 654.189 446.974 655.264 446.192C656.354 445.395 656.899 444.296 656.899 442.896C656.899 441.529 656.419 440.512 655.459 439.845C654.499 439.177 652.708 438.51 650.088 437.843C647.451 437.175 645.498 436.345 644.229 435.353C642.959 434.343 642.324 432.919 642.324 431.08C642.324 429.208 643.065 427.703 644.546 426.563C646.027 425.408 648.029 424.83 650.552 424.83C653.091 424.83 655.117 425.432 656.631 426.637C658.161 427.825 658.926 429.526 658.926 431.739V432.105H656.387V431.764C656.387 430.152 655.882 428.972 654.873 428.224C653.88 427.459 652.44 427.076 650.552 427.076C648.696 427.076 647.288 427.418 646.328 428.102C645.368 428.785 644.888 429.745 644.888 430.982C644.888 432.138 645.343 433.041 646.255 433.692C647.183 434.343 648.924 434.994 651.479 435.646C654.084 436.313 656.061 437.167 657.412 438.209C658.779 439.234 659.463 440.732 659.463 442.701C659.463 444.752 658.73 446.412 657.266 447.682C655.801 448.951 653.587 449.586 650.625 449.586C647.679 449.586 645.441 448.943 643.911 447.657C642.397 446.371 641.641 444.573 641.641 442.262V441.871ZM664.419 441.188V425.416H666.982V441.212C666.982 443.393 667.487 444.939 668.496 445.851C669.505 446.762 670.929 447.218 672.769 447.218C674.38 447.218 675.796 446.786 677.017 445.924C678.237 445.061 679.189 443.987 679.873 442.701V425.416H682.461V449H680.093L679.995 445.362H679.946C679.116 446.599 678.018 447.6 676.65 448.365C675.283 449.114 673.737 449.488 672.012 449.488C669.668 449.488 667.812 448.854 666.445 447.584C665.094 446.298 664.419 444.166 664.419 441.188ZM688.906 449V412.721H691.47V449H688.906ZM694.814 427.589V425.416H707.778V427.589H694.814ZM699.16 442.774V426.563V426.197V417.579H701.748V442.872C701.748 444.597 702.033 445.769 702.603 446.388C703.172 446.99 704.019 447.291 705.142 447.291C705.614 447.291 706.053 447.25 706.46 447.169C706.867 447.088 707.241 446.974 707.583 446.827V449.073C707.274 449.203 706.859 449.317 706.338 449.415C705.817 449.529 705.223 449.586 704.556 449.586C702.912 449.586 701.602 449.081 700.625 448.072C699.648 447.063 699.16 445.297 699.16 442.774ZM711.929 449V425.416H714.492V449H711.929ZM711.392 417.115C711.392 416.611 711.546 416.188 711.855 415.846C712.181 415.504 712.629 415.333 713.198 415.333C713.784 415.333 714.232 415.504 714.541 415.846C714.85 416.188 715.005 416.611 715.005 417.115C715.005 417.62 714.842 418.051 714.517 418.409C714.207 418.751 713.768 418.922 713.198 418.922C712.612 418.922 712.165 418.751 711.855 418.409C711.546 418.051 711.392 417.62 711.392 417.115ZM721.011 449V425.416H723.403L723.452 429.029H723.501C724.315 427.776 725.397 426.783 726.748 426.051C728.115 425.302 729.67 424.928 731.411 424.928C733.755 424.928 735.61 425.571 736.978 426.856C738.361 428.126 739.053 430.25 739.053 433.229V449H736.465V433.326C736.465 431.145 735.952 429.583 734.927 428.639C733.918 427.678 732.485 427.198 730.63 427.198C729.019 427.198 727.603 427.63 726.382 428.492C725.177 429.339 724.242 430.413 723.574 431.715V449H721.011ZM744.717 456.568L746.157 454.542C746.938 455.274 747.972 455.901 749.258 456.422C750.544 456.959 751.992 457.228 753.604 457.228C755.85 457.228 757.656 456.495 759.023 455.03C760.391 453.582 761.074 451.352 761.074 448.341V445.704C760.342 446.746 759.325 447.625 758.022 448.341C756.737 449.057 755.174 449.415 753.335 449.415C750.356 449.415 748.005 448.316 746.279 446.119C744.554 443.906 743.691 441.033 743.691 437.501V436.817C743.691 433.318 744.554 430.462 746.279 428.248C748.005 426.035 750.373 424.928 753.384 424.928C755.158 424.928 756.729 425.302 758.096 426.051C759.463 426.799 760.48 427.703 761.147 428.761H761.196L761.27 425.416H763.662V448.341C763.662 452.019 762.751 454.802 760.928 456.69C759.105 458.595 756.655 459.547 753.579 459.547C751.74 459.547 750.063 459.262 748.55 458.692C747.036 458.139 745.758 457.431 744.717 456.568ZM746.304 437.55C746.304 440.414 746.938 442.734 748.208 444.508C749.494 446.282 751.414 447.169 753.97 447.169C755.728 447.169 757.217 446.729 758.438 445.851C759.658 444.955 760.537 443.922 761.074 442.75V431.544C760.537 430.405 759.65 429.396 758.413 428.517C757.176 427.621 755.687 427.174 753.945 427.174C751.39 427.174 749.478 428.069 748.208 429.859C746.938 431.65 746.304 433.953 746.304 436.769V437.55Z" fill="white"/>
<path opacity="0.8" d="M649.45 376H552.55C551.142 376 550 376.895 550 378C550 379.105 551.142 380 552.55 380H649.45C650.858 380 652 379.105 652 378C652 376.895 650.858 376 649.45 376Z" fill="#E11D48"/>
<path d="M371.571 489L375.336 467.672H376.303L372.538 489H371.571ZM378.896 468.551L379.057 467.672H394.262L394.101 468.551H386.981L383.378 489H382.411L386.029 468.551H378.896ZM400.019 478.673L400.15 477.926C400.795 474.303 402.016 471.627 403.812 469.898C405.619 468.16 407.733 467.291 410.155 467.291C412.265 467.291 413.852 467.882 414.916 469.063C415.98 470.245 416.435 471.969 416.278 474.234L416.234 474.527H415.297L415.326 474.264C415.463 472.271 415.067 470.763 414.14 469.737C413.222 468.702 411.84 468.185 409.994 468.185C407.826 468.185 405.946 469 404.354 470.631C402.772 472.252 401.703 474.649 401.146 477.823L400.985 478.761C400.39 482.13 400.604 484.596 401.63 486.158C402.655 487.711 404.242 488.487 406.391 488.487C408.549 488.487 410.238 487.892 411.459 486.7C412.689 485.509 413.495 484.078 413.876 482.408L413.935 482.145H414.901L414.843 482.438C414.335 484.508 413.358 486.183 411.913 487.462C410.468 488.741 408.573 489.381 406.229 489.381C403.837 489.381 402.04 488.526 400.839 486.817C399.638 485.108 399.364 482.394 400.019 478.673ZM417.143 481.822L417.216 481.471C417.616 479.205 418.539 477.384 419.984 476.007C421.439 474.62 423.207 473.927 425.287 473.927C427.377 473.927 428.9 474.62 429.857 476.007C430.824 477.394 431.107 479.22 430.707 481.485L430.648 481.822C430.248 484.098 429.311 485.929 427.836 487.315C426.371 488.692 424.613 489.381 422.562 489.381C420.512 489.381 418.998 488.688 418.021 487.301C417.045 485.914 416.752 484.088 417.143 481.822ZM418.183 481.412L418.095 481.91C417.753 483.834 417.973 485.416 418.754 486.656C419.545 487.896 420.863 488.517 422.709 488.517C424.574 488.517 426.112 487.896 427.323 486.656C428.544 485.416 429.325 483.834 429.667 481.91L429.77 481.412C430.102 479.479 429.887 477.892 429.125 476.651C428.363 475.411 427.03 474.791 425.126 474.791C423.241 474.791 421.693 475.411 420.482 476.651C419.281 477.892 418.515 479.479 418.183 481.412ZM432.611 489L435.204 474.308H436.054L435.658 476.798C436.361 475.987 437.216 475.323 438.222 474.806C439.228 474.278 440.336 474.015 441.547 474.015C443.041 474.015 444.149 474.405 444.872 475.187C445.604 475.958 445.81 477.237 445.487 479.024L443.744 489H442.792L444.55 479.024C444.804 477.56 444.623 476.505 444.008 475.86C443.393 475.216 442.416 474.894 441.078 474.894C439.926 474.894 438.866 475.187 437.899 475.772C436.933 476.358 436.137 477.062 435.512 477.882L433.549 489H432.611ZM447.655 484.635H448.593L448.563 484.796C448.339 486.065 448.593 487.003 449.325 487.608C450.058 488.214 451.151 488.521 452.606 488.531C454.081 488.531 455.258 488.229 456.137 487.623C457.016 487.018 457.538 486.222 457.704 485.235C457.88 484.249 457.675 483.531 457.089 483.082C456.503 482.623 455.36 482.188 453.661 481.778C451.981 481.378 450.805 480.865 450.131 480.24C449.467 479.605 449.228 478.756 449.413 477.691C449.618 476.559 450.243 475.65 451.288 474.967C452.343 474.273 453.651 473.927 455.214 473.927C456.806 473.927 458.002 474.312 458.803 475.084C459.604 475.855 459.887 476.896 459.652 478.204L459.638 478.351H458.7V478.263C458.905 477.149 458.69 476.295 458.056 475.699C457.431 475.094 456.435 474.791 455.067 474.791C453.71 474.791 452.626 475.04 451.815 475.538C451.015 476.026 450.536 476.71 450.38 477.589C450.233 478.429 450.424 479.093 450.951 479.581C451.488 480.06 452.587 480.499 454.247 480.899C455.946 481.31 457.162 481.822 457.895 482.438C458.637 483.053 458.905 483.966 458.7 485.177C458.485 486.407 457.851 487.418 456.796 488.209C455.751 488.99 454.301 489.381 452.445 489.381C450.609 489.381 449.281 488.98 448.461 488.18C447.641 487.379 447.362 486.251 447.626 484.796L447.655 484.635ZM462.011 484.298L463.769 474.308H464.706L462.948 484.283C462.694 485.748 462.87 486.803 463.476 487.447C464.091 488.092 465.062 488.419 466.391 488.429C467.553 488.429 468.617 488.141 469.584 487.564C470.551 486.988 471.361 486.275 472.016 485.426L473.964 474.308H474.916L472.323 489H471.459L471.869 486.51H471.854C471.142 487.34 470.272 488.014 469.247 488.531C468.231 489.039 467.128 489.293 465.937 489.293C464.442 489.293 463.334 488.907 462.611 488.136C461.898 487.364 461.698 486.085 462.011 484.298ZM476.557 489L480.453 466.925H481.391L477.494 489H476.557ZM482.123 475.157L482.27 474.308H490.517L490.37 475.157H482.123ZM483.397 485.206L485.243 474.82L485.272 474.645L486.093 469.986H487.03L484.335 485.309C484.13 486.48 484.188 487.306 484.511 487.784C484.843 488.263 485.404 488.502 486.195 488.502C486.537 488.502 486.85 488.478 487.133 488.429C487.416 488.38 487.67 488.316 487.895 488.238L487.748 489.103C487.553 489.171 487.289 489.234 486.957 489.293C486.625 489.352 486.244 489.381 485.814 489.381C484.857 489.381 484.149 489.063 483.69 488.429C483.241 487.794 483.144 486.72 483.397 485.206ZM490.692 489L493.271 474.308H494.208L491.63 489H490.692ZM493.827 469.239C493.866 469.015 493.969 468.824 494.135 468.668C494.311 468.512 494.53 468.434 494.794 468.434C495.058 468.434 495.243 468.512 495.351 468.668C495.458 468.824 495.492 469.015 495.453 469.239C495.414 469.483 495.307 469.684 495.131 469.84C494.965 469.986 494.755 470.06 494.501 470.06C494.237 470.06 494.047 469.986 493.93 469.84C493.822 469.684 493.788 469.483 493.827 469.239ZM495.893 489L498.485 474.308H499.335L498.939 476.798C499.643 475.987 500.497 475.323 501.503 474.806C502.509 474.278 503.617 474.015 504.828 474.015C506.322 474.015 507.431 474.405 508.153 475.187C508.886 475.958 509.091 477.237 508.769 479.024L507.025 489H506.073L507.831 479.024C508.085 477.56 507.904 476.505 507.289 475.86C506.674 475.216 505.697 474.894 504.359 474.894C503.207 474.894 502.147 475.187 501.181 475.772C500.214 476.358 499.418 477.062 498.793 477.882L496.83 489H495.893ZM509.926 493.658L510.556 492.882C511.005 493.351 511.645 493.727 512.475 494.01C513.314 494.303 514.242 494.449 515.258 494.449C516.918 494.449 518.305 493.946 519.418 492.94C520.541 491.944 521.273 490.504 521.615 488.619L521.938 486.847C521.322 487.521 520.526 488.097 519.55 488.575C518.583 489.054 517.479 489.293 516.239 489.293C514.315 489.293 512.924 488.604 512.064 487.228C511.205 485.841 510.976 484.034 511.376 481.808L511.435 481.427C511.825 479.229 512.689 477.447 514.027 476.08C515.375 474.703 517.001 474.015 518.905 474.015C520.136 474.015 521.171 474.273 522.011 474.791C522.851 475.299 523.446 475.89 523.798 476.563L524.223 474.308H525.102L522.582 488.619C522.191 490.816 521.322 492.481 519.975 493.614C518.637 494.757 517.03 495.328 515.155 495.328C514.003 495.328 512.982 495.172 512.094 494.859C511.215 494.557 510.492 494.156 509.926 493.658ZM512.313 481.837C511.962 483.819 512.143 485.416 512.855 486.627C513.568 487.828 514.828 488.429 516.635 488.429C517.865 488.429 518.964 488.146 519.931 487.579C520.897 487.003 521.64 486.339 522.157 485.587L523.549 477.691C523.285 476.959 522.768 476.31 521.996 475.743C521.225 475.177 520.224 474.894 518.993 474.894C517.196 474.884 515.731 475.479 514.599 476.681C513.466 477.882 512.729 479.454 512.387 481.397L512.313 481.837ZM533.144 483.478C533.388 482.12 534.013 480.958 535.019 479.991C536.034 479.024 537.47 478.033 539.325 477.018L541.742 475.699C542.65 475.191 543.373 474.625 543.91 474C544.447 473.375 544.799 472.604 544.965 471.686C545.141 470.67 545.014 469.815 544.584 469.122C544.164 468.429 543.427 468.082 542.372 468.082C541.317 468.082 540.39 468.458 539.589 469.21C538.798 469.952 538.305 470.899 538.109 472.052C537.963 472.853 537.997 473.619 538.212 474.352C538.437 475.074 538.935 476.017 539.706 477.179L547.602 489H546.444L538.944 477.647C538.114 476.388 537.567 475.367 537.304 474.586C537.05 473.805 537.006 472.96 537.172 472.052C537.426 470.606 538.056 469.444 539.062 468.565C540.067 467.677 541.22 467.232 542.519 467.232C543.808 467.232 544.755 467.647 545.36 468.478C545.966 469.298 546.156 470.353 545.932 471.642C545.736 472.735 545.307 473.653 544.643 474.396C543.988 475.138 543.188 475.782 542.24 476.329L539.75 477.721C537.992 478.707 536.659 479.625 535.751 480.475C534.843 481.314 534.291 482.311 534.096 483.463C533.842 484.879 534.096 486.065 534.857 487.022C535.619 487.97 536.776 488.443 538.329 488.443C540.478 488.443 542.406 487.604 544.115 485.924C545.834 484.244 546.947 481.979 547.455 479.127H548.378C547.851 482.076 546.635 484.508 544.73 486.422C542.826 488.336 540.644 489.293 538.183 489.293C536.298 489.293 534.911 488.736 534.022 487.623C533.144 486.5 532.851 485.118 533.144 483.478ZM556.508 483.478L556.596 482.95H557.562L557.489 483.419C557.206 485.03 557.509 486.28 558.397 487.169C559.296 488.048 560.673 488.487 562.528 488.487C564.364 488.487 565.858 488.082 567.011 487.271C568.173 486.461 568.881 485.343 569.135 483.917C569.379 482.56 569.179 481.49 568.534 480.709C567.89 479.918 566.43 479.161 564.154 478.438C561.996 477.755 560.502 476.969 559.672 476.08C558.852 475.191 558.583 473.976 558.866 472.433C559.159 470.772 559.931 469.503 561.181 468.624C562.431 467.735 564.081 467.291 566.132 467.291C568.202 467.291 569.691 467.867 570.6 469.02C571.518 470.172 571.84 471.495 571.566 472.989L571.493 473.473H570.526L570.614 473.004C570.849 471.686 570.6 470.553 569.867 469.605C569.145 468.658 567.846 468.185 565.971 468.185C564.203 468.185 562.797 468.556 561.752 469.298C560.707 470.03 560.062 471.085 559.818 472.462C559.594 473.722 559.838 474.732 560.551 475.494C561.264 476.246 562.738 476.974 564.975 477.677C567.094 478.36 568.544 479.166 569.325 480.094C570.116 481.021 570.37 482.291 570.087 483.902C569.784 485.631 568.954 486.979 567.597 487.945C566.249 488.902 564.506 489.381 562.367 489.381C560.277 489.381 558.7 488.854 557.636 487.799C556.571 486.734 556.195 485.294 556.508 483.478ZM572.504 481.822L572.577 481.471C572.978 479.205 573.9 477.384 575.346 476.007C576.801 474.62 578.568 473.927 580.648 473.927C582.738 473.927 584.262 474.62 585.219 476.007C586.186 477.394 586.469 479.22 586.068 481.485L586.01 481.822C585.609 484.098 584.672 485.929 583.197 487.315C581.732 488.692 579.975 489.381 577.924 489.381C575.873 489.381 574.359 488.688 573.383 487.301C572.406 485.914 572.113 484.088 572.504 481.822ZM573.544 481.412L573.456 481.91C573.114 483.834 573.334 485.416 574.115 486.656C574.906 487.896 576.225 488.517 578.07 488.517C579.936 488.517 581.474 487.896 582.685 486.656C583.905 485.416 584.687 483.834 585.028 481.91L585.131 481.412C585.463 479.479 585.248 477.892 584.486 476.651C583.725 475.411 582.392 474.791 580.487 474.791C578.603 474.791 577.055 475.411 575.844 476.651C574.643 477.892 573.876 479.479 573.544 481.412ZM589.013 489L592.045 471.905C592.348 470.138 592.973 468.814 593.92 467.936C594.877 467.057 596.063 466.617 597.479 466.617C597.792 466.617 598.104 466.642 598.417 466.69C598.729 466.729 598.998 466.778 599.223 466.837L598.944 467.657C598.769 467.618 598.539 467.574 598.256 467.525C597.973 467.477 597.689 467.452 597.406 467.452C596.244 467.452 595.282 467.813 594.521 468.536C593.759 469.249 593.241 470.392 592.968 471.964L592.499 474.645L592.455 474.791L589.95 489H589.013ZM588.573 475.157L588.72 474.308H591.913H592.206H596.396L596.264 475.157H588.573ZM596.381 475.157L596.527 474.308H604.774L604.628 475.157H596.381ZM597.655 485.206L599.501 474.82L599.53 474.645L600.351 469.986H601.288L598.593 485.309C598.388 486.48 598.446 487.306 598.769 487.784C599.101 488.263 599.662 488.502 600.453 488.502C600.795 488.502 601.107 488.478 601.391 488.429C601.674 488.38 601.928 488.316 602.152 488.238L602.006 489.103C601.811 489.171 601.547 489.234 601.215 489.293C600.883 489.352 600.502 489.381 600.072 489.381C599.115 489.381 598.407 489.063 597.948 488.429C597.499 487.794 597.401 486.72 597.655 485.206ZM605.741 474.308H606.679L608.334 486.29C608.383 486.583 608.427 486.896 608.466 487.228C608.505 487.56 608.529 487.862 608.539 488.136H608.627C608.715 487.862 608.822 487.56 608.949 487.228C609.076 486.896 609.213 486.583 609.359 486.29L615.263 474.308H616.405L618.031 486.305C618.061 486.588 618.09 486.9 618.119 487.242C618.148 487.574 618.163 487.867 618.163 488.121H618.251C618.339 487.867 618.456 487.574 618.603 487.242C618.759 486.9 618.91 486.588 619.057 486.305L624.945 474.308H625.971L618.69 489H617.606L615.966 477.018C615.927 476.754 615.888 476.461 615.849 476.139C615.819 475.807 615.79 475.509 615.761 475.245H615.673C615.546 475.509 615.404 475.807 615.248 476.139C615.092 476.461 614.95 476.754 614.823 477.018L608.949 489H607.851L605.741 474.308ZM625.59 484.986C625.844 483.551 626.591 482.442 627.831 481.661C629.071 480.88 630.609 480.489 632.445 480.489H636.884L637.177 478.849C637.401 477.54 637.25 476.534 636.723 475.831C636.205 475.118 635.18 474.762 633.646 474.762C632.104 474.762 630.912 475.084 630.072 475.729C629.242 476.363 628.744 477.145 628.578 478.072L628.52 478.409H627.611L627.67 478.072C627.875 476.9 628.539 475.919 629.662 475.128C630.785 474.327 632.182 473.927 633.852 473.927C635.512 473.927 636.713 474.327 637.455 475.128C638.197 475.929 638.422 477.149 638.129 478.79L636.942 485.484C636.835 486.148 636.786 486.773 636.796 487.359C636.815 487.945 636.884 488.438 637.001 488.839L636.972 489H636.078C635.961 488.697 635.883 488.302 635.844 487.813C635.814 487.315 635.829 486.817 635.888 486.319C635.38 487.081 634.594 487.76 633.529 488.355C632.475 488.951 631.21 489.249 629.735 489.249C628.29 489.249 627.172 488.902 626.381 488.209C625.6 487.506 625.336 486.432 625.59 484.986ZM626.542 484.957C626.337 486.1 626.532 486.964 627.128 487.55C627.733 488.126 628.734 488.414 630.131 488.414C631.605 488.414 632.938 487.999 634.13 487.169C635.321 486.339 636.015 485.392 636.21 484.327L636.752 481.266H632.504C630.775 481.266 629.398 481.593 628.373 482.247C627.357 482.892 626.747 483.795 626.542 484.957ZM640.502 489L643.095 474.308H643.944L643.563 476.681H643.578C644.174 475.948 644.911 475.309 645.79 474.762C646.669 474.205 647.641 473.927 648.705 473.927C648.988 473.927 649.262 473.956 649.525 474.015C649.799 474.063 649.984 474.107 650.082 474.146L649.921 475.069C649.735 475.021 649.516 474.977 649.262 474.938C649.008 474.898 648.729 474.879 648.427 474.879C647.411 474.879 646.464 475.162 645.585 475.729C644.706 476.285 643.983 476.988 643.417 477.838L641.439 489H640.502ZM649.965 481.822L650.038 481.471C650.438 479.215 651.342 477.394 652.748 476.007C654.164 474.62 655.854 473.927 657.816 473.927C659.75 473.927 661.107 474.537 661.889 475.758C662.68 476.979 662.89 478.644 662.519 480.753L662.416 481.31H650.58L650.727 480.489H661.625L661.64 480.387C661.933 478.648 661.767 477.281 661.142 476.285C660.517 475.289 659.34 474.791 657.611 474.791C655.863 474.791 654.408 475.406 653.246 476.637C652.084 477.867 651.332 479.459 650.99 481.412L650.902 481.881C650.551 483.834 650.751 485.431 651.503 486.671C652.265 487.901 653.637 488.517 655.619 488.517C656.742 488.517 657.729 488.312 658.578 487.901C659.428 487.491 660.15 486.974 660.746 486.349L661.288 486.949C660.731 487.574 659.955 488.136 658.959 488.634C657.963 489.132 656.796 489.381 655.458 489.381C653.28 489.381 651.723 488.688 650.785 487.301C649.848 485.914 649.574 484.088 649.965 481.822ZM670.604 489L674.369 467.672H679.613C682.309 467.672 684.306 468.6 685.604 470.455C686.913 472.301 687.289 474.801 686.732 477.955L686.601 478.717C686.015 481.998 684.721 484.532 682.719 486.319C680.717 488.106 678.427 489 675.849 489H670.604ZM671.718 488.121H676.01C678.344 488.121 680.395 487.311 682.162 485.689C683.93 484.059 685.087 481.734 685.634 478.717L685.751 477.97C686.269 475.05 685.966 472.75 684.843 471.07C683.72 469.391 681.923 468.551 679.452 468.551H675.175L671.718 488.121ZM688.725 481.822L688.798 481.471C689.198 479.215 690.102 477.394 691.508 476.007C692.924 474.62 694.613 473.927 696.576 473.927C698.51 473.927 699.867 474.537 700.648 475.758C701.439 476.979 701.649 478.644 701.278 480.753L701.176 481.31H689.34L689.486 480.489H700.385L700.399 480.387C700.692 478.648 700.526 477.281 699.901 476.285C699.276 475.289 698.1 474.791 696.371 474.791C694.623 474.791 693.168 475.406 692.006 476.637C690.844 477.867 690.092 479.459 689.75 481.412L689.662 481.881C689.311 483.834 689.511 485.431 690.263 486.671C691.024 487.901 692.396 488.517 694.379 488.517C695.502 488.517 696.488 488.312 697.338 487.901C698.188 487.491 698.91 486.974 699.506 486.349L700.048 486.949C699.491 487.574 698.715 488.136 697.719 488.634C696.723 489.132 695.556 489.381 694.218 489.381C692.04 489.381 690.482 488.688 689.545 487.301C688.607 485.914 688.334 484.088 688.725 481.822ZM703.241 474.308H704.193L706.845 486.524C706.913 486.798 706.972 487.066 707.021 487.33C707.069 487.594 707.104 487.843 707.123 488.077H707.196C707.294 487.843 707.401 487.594 707.519 487.33C707.646 487.066 707.782 486.798 707.929 486.524L714.901 474.308H715.912L707.46 489H706.537L703.241 474.308ZM715.619 481.822L715.692 481.471C716.093 479.215 716.996 477.394 718.402 476.007C719.818 474.62 721.508 473.927 723.471 473.927C725.404 473.927 726.762 474.537 727.543 475.758C728.334 476.979 728.544 478.644 728.173 480.753L728.07 481.31H716.234L716.381 480.489H727.279L727.294 480.387C727.587 478.648 727.421 477.281 726.796 476.285C726.171 475.289 724.994 474.791 723.266 474.791C721.518 474.791 720.062 475.406 718.9 476.637C717.738 477.867 716.986 479.459 716.645 481.412L716.557 481.881C716.205 483.834 716.405 485.431 717.157 486.671C717.919 487.901 719.291 488.517 721.273 488.517C722.396 488.517 723.383 488.312 724.232 487.901C725.082 487.491 725.805 486.974 726.4 486.349L726.942 486.949C726.386 487.574 725.609 488.136 724.613 488.634C723.617 489.132 722.45 489.381 721.112 489.381C718.935 489.381 717.377 488.688 716.439 487.301C715.502 485.914 715.229 484.088 715.619 481.822ZM729.623 489L733.52 466.925H734.457L730.561 489H729.623ZM735.102 481.822L735.175 481.471C735.575 479.205 736.498 477.384 737.943 476.007C739.398 474.62 741.166 473.927 743.246 473.927C745.336 473.927 746.859 474.62 747.816 476.007C748.783 477.394 749.066 479.22 748.666 481.485L748.607 481.822C748.207 484.098 747.27 485.929 745.795 487.315C744.33 488.692 742.572 489.381 740.521 489.381C738.471 489.381 736.957 488.688 735.98 487.301C735.004 485.914 734.711 484.088 735.102 481.822ZM736.142 481.412L736.054 481.91C735.712 483.834 735.932 485.416 736.713 486.656C737.504 487.896 738.822 488.517 740.668 488.517C742.533 488.517 744.071 487.896 745.282 486.656C746.503 485.416 747.284 483.834 747.626 481.91L747.729 481.412C748.061 479.479 747.846 477.892 747.084 476.651C746.322 475.411 744.989 474.791 743.085 474.791C741.2 474.791 739.652 475.411 738.441 476.651C737.24 477.892 736.474 479.479 736.142 481.412ZM749.472 495.24L753.163 474.308H754.013L753.661 476.563H753.676C754.252 475.89 755.053 475.299 756.078 474.791C757.113 474.273 758.246 474.015 759.477 474.015C761.381 474.015 762.758 474.703 763.607 476.08C764.457 477.447 764.691 479.229 764.311 481.427L764.237 481.808C763.847 484.034 762.982 485.841 761.645 487.228C760.307 488.604 758.671 489.293 756.737 489.293C755.507 489.293 754.486 489.054 753.676 488.575C752.875 488.097 752.279 487.521 751.889 486.847L750.409 495.24H749.472ZM752.108 485.587C752.372 486.339 752.89 487.003 753.661 487.579C754.433 488.146 755.429 488.429 756.649 488.429C758.466 488.429 759.936 487.823 761.059 486.612C762.191 485.401 762.934 483.81 763.285 481.837L763.344 481.397C763.695 479.454 763.524 477.882 762.831 476.681C762.138 475.479 760.888 474.884 759.081 474.894C757.851 474.894 756.742 475.177 755.756 475.743C754.779 476.31 754.027 476.959 753.5 477.691L752.108 485.587ZM766.215 489L768.808 474.308H769.657L769.262 476.783C769.984 475.924 770.81 475.25 771.737 474.762C772.665 474.264 773.7 474.015 774.843 474.015C775.937 474.024 776.83 474.278 777.523 474.776C778.227 475.265 778.617 475.953 778.695 476.842C779.369 476.002 780.204 475.323 781.2 474.806C782.206 474.278 783.295 474.015 784.467 474.015C785.844 474.015 786.898 474.41 787.631 475.201C788.363 475.992 788.573 477.262 788.261 479.01L786.503 489H785.58L787.338 479.024C787.592 477.589 787.411 476.544 786.796 475.89C786.19 475.226 785.282 474.894 784.071 474.894C782.958 474.894 781.942 475.191 781.024 475.787C780.106 476.373 779.364 477.076 778.798 477.896L776.835 489H775.897L777.699 478.775C777.934 477.438 777.738 476.456 777.113 475.831C776.498 475.206 775.585 474.894 774.374 474.894C773.28 474.894 772.289 475.172 771.4 475.729C770.521 476.285 769.76 477.008 769.115 477.896L767.152 489H766.215ZM790.824 481.822L790.897 481.471C791.298 479.215 792.201 477.394 793.607 476.007C795.023 474.62 796.713 473.927 798.676 473.927C800.609 473.927 801.967 474.537 802.748 475.758C803.539 476.979 803.749 478.644 803.378 480.753L803.275 481.31H791.439L791.586 480.489H802.484L802.499 480.387C802.792 478.648 802.626 477.281 802.001 476.285C801.376 475.289 800.199 474.791 798.471 474.791C796.723 474.791 795.268 475.406 794.105 476.637C792.943 477.867 792.191 479.459 791.85 481.412L791.762 481.881C791.41 483.834 791.61 485.431 792.362 486.671C793.124 487.901 794.496 488.517 796.479 488.517C797.602 488.517 798.588 488.312 799.438 487.901C800.287 487.491 801.01 486.974 801.605 486.349L802.147 486.949C801.591 487.574 800.814 488.136 799.818 488.634C798.822 489.132 797.655 489.381 796.317 489.381C794.14 489.381 792.582 488.688 791.645 487.301C790.707 485.914 790.434 484.088 790.824 481.822ZM804.77 489L807.362 474.308H808.212L807.816 476.798C808.52 475.987 809.374 475.323 810.38 474.806C811.386 474.278 812.494 474.015 813.705 474.015C815.199 474.015 816.308 474.405 817.03 475.187C817.763 475.958 817.968 477.237 817.646 479.024L815.902 489H814.95L816.708 479.024C816.962 477.56 816.781 476.505 816.166 475.86C815.551 475.216 814.574 474.894 813.236 474.894C812.084 474.894 811.024 475.187 810.058 475.772C809.091 476.358 808.295 477.062 807.67 477.882L805.707 489H804.77ZM820.326 475.157L820.473 474.308H828.72L828.573 475.157H820.326ZM821.601 485.206L823.446 474.82L823.476 474.645L824.296 469.986H825.233L822.538 485.309C822.333 486.48 822.392 487.306 822.714 487.784C823.046 488.263 823.607 488.502 824.398 488.502C824.74 488.502 825.053 488.478 825.336 488.429C825.619 488.38 825.873 488.316 826.098 488.238L825.951 489.103C825.756 489.171 825.492 489.234 825.16 489.293C824.828 489.352 824.447 489.381 824.018 489.381C823.061 489.381 822.353 489.063 821.894 488.429C821.444 487.794 821.347 486.72 821.601 485.206Z" fill="#94A3B8"/>
</g>
<defs>
<linearGradient id="paint0_linear_1_2" x1="0" y1="0" x2="51856.9" y2="98775.1" gradientUnits="userSpaceOnUse">
<stop stop-color="#0F172A"/>
<stop offset="1" stop-color="#1E293B"/>
</linearGradient>
<linearGradient id="paint1_linear_1_2" x1="513" y1="156" x2="14593" y2="7196" gradientUnits="userSpaceOnUse">
<stop stop-color="#E11D48"/>
<stop offset="1" stop-color="#BE123C"/>
</linearGradient>
<linearGradient id="paint2_linear_1_2" x1="601" y1="156" x2="14681" y2="7196" gradientUnits="userSpaceOnUse">
<stop stop-color="#E11D48"/>
<stop offset="1" stop-color="#BE123C"/>
</linearGradient>
<linearGradient id="paint3_linear_1_2" x1="579" y1="134" x2="4979" y2="4534" gradientUnits="userSpaceOnUse">
<stop stop-color="#E11D48"/>
<stop offset="1" stop-color="#BE123C"/>
</linearGradient>
<linearGradient id="paint4_linear_1_2" x1="491" y1="310" x2="4891" y2="4710" gradientUnits="userSpaceOnUse">
<stop stop-color="#E11D48"/>
<stop offset="1" stop-color="#BE123C"/>
</linearGradient>
<linearGradient id="paint5_linear_1_2" x1="667" y1="310" x2="5067" y2="4710" gradientUnits="userSpaceOnUse">
<stop stop-color="#E11D48"/>
<stop offset="1" stop-color="#BE123C"/>
</linearGradient>
<linearGradient id="paint6_linear_1_2" x1="583.4" y1="248.4" x2="4103.4" y2="3768.4" gradientUnits="userSpaceOnUse">
<stop stop-color="#E11D48"/>
<stop offset="1" stop-color="#BE123C"/>
</linearGradient>
<clipPath id="clip0_1_2">
<rect width="1200" height="630" fill="white"/>
</clipPath>
</defs>
</svg>
