<svg xmlns="http://www.w3.org/2000/svg" xmlns:xlink="http://www.w3.org/1999/xlink" id="Grupo_355" data-name="Grupo 355" width="144" height="48" viewBox="0 0 705.759 144.333"><defs><clipPath id="clip-path"><rect id="Rect&#xE1;ngulo_194" data-name="Rect&#xE1;ngulo 194" width="120.963" height="120.963" fill="#94A3B8"></rect></clipPath><clipPath id="clip-path-3"><rect id="Rect&#xE1;ngulo_198" data-name="Rect&#xE1;ngulo 198" width="705.759" height="144.333" fill="#94A3B8"></rect></clipPath></defs><g id="Grupo_188" data-name="Grupo 188" transform="translate(11.683 11.685)"><g id="Grupo_187" data-name="Grupo 187" clip-path="url(#clip-path)"><g id="Grupo_186" data-name="Grupo 186"><g id="Grupo_185" data-name="Grupo 185"><g id="Grupo_184" data-name="Grupo 184" clip-path="url(#clip-path)"></g></g></g></g></g><g id="Grupo_190" data-name="Grupo 190" transform="translate(0 0)"><g id="Grupo_189" data-name="Grupo 189" clip-path="url(#clip-path-3)"><path id="Trazado_529" data-name="Trazado 529" d="M82.6,34.874H73.378V13.981H58.12V34.874H43.45v.014H39.758V13.981H24.5V34.888H10.985V47.743H24.5v19.64H39.758V47.743H58.12V92.964H73.378V77.549H82.9A21.339,21.339,0,0,0,82.6,34.874m.231,29.509H73.378V47.729h9.448a8.327,8.327,0,1,1,0,16.653" transform="translate(14.687 18.693)" fill="#94A3B8"></path><path id="Trazado_530" data-name="Trazado 530" d="M84.146,49H76.093v-2.5H94.941V49H86.888V70.484H84.146Z" transform="translate(101.736 62.163)" fill="#94A3B8"></path><path id="Trazado_531" data-name="Trazado 531" d="M88.1,46.494h17.34v2.468H90.8v8.191h13.089v2.468H90.8v8.4h14.807v2.466H88.1Z" transform="translate(117.783 62.163)" fill="#94A3B8"></path><path id="Trazado_532" data-name="Trazado 532" d="M120.259,46.494l-8.841,11.755L120.6,70.484h-3.22l-7.677-10.351-7.677,10.351h-3.12l9.184-12.234L99.252,46.494h3.188l7.333,9.869,7.333-9.869Z" transform="translate(132.24 62.163)" fill="#94A3B8"></path><path id="Trazado_533" data-name="Trazado 533" d="M119.405,49h-8.053v-2.5H130.2V49h-8.053V70.484h-2.741Z" transform="translate(148.876 62.163)" fill="#94A3B8"></path><rect id="Rect&#xE1;ngulo_195" data-name="Rect&#xE1;ngulo 195" width="2.706" height="23.989" transform="translate(288.515 108.658)" fill="#94A3B8"></rect><path id="Trazado_534" data-name="Trazado 534" d="M129.384,46.494h2.706V67.981h13.5v2.5H129.384Z" transform="translate(172.985 62.163)" fill="#94A3B8"></path><path id="Trazado_535" data-name="Trazado 535" d="M140.226,46.494h17.34v2.468H142.932v8.191h13.094v2.468H142.932v8.4H157.74v2.466H140.226Z" transform="translate(187.481 62.163)" fill="#94A3B8"></path><path id="Trazado_536" data-name="Trazado 536" d="M157.979,46.494h8.981c5.412,0,8.976,2.879,8.976,7.609v.068c0,5.176-4.316,7.85-9.423,7.85h-5.826v8.462h-2.709Zm8.638,13.057c3.973,0,6.581-2.124,6.581-5.277V54.2c0-3.426-2.571-5.207-6.443-5.207h-6.067V59.551Z" transform="translate(211.216 62.162)" fill="#94A3B8"></path><path id="Trazado_537" data-name="Trazado 537" d="M169.541,46.494h10.318a9.443,9.443,0,0,1,6.817,2.4,6.621,6.621,0,0,1,1.853,4.73v.068c0,3.975-2.744,6.305-6.513,6.992l7.369,9.8h-3.326l-6.957-9.32H172.25v9.32h-2.709ZM179.618,58.73c3.6,0,6.167-1.853,6.167-4.936v-.07c0-2.947-2.26-4.728-6.135-4.728h-7.4V58.73Z" transform="translate(226.675 62.162)" fill="#94A3B8"></path><rect id="Rect&#xE1;ngulo_196" data-name="Rect&#xE1;ngulo 196" width="2.706" height="23.989" transform="translate(425.363 108.658)" fill="#94A3B8"></rect><path id="Trazado_538" data-name="Trazado 538" d="M187.94,46.494h2.536l15.113,19.226V46.494h2.638V70.484H206.07l-15.49-19.67v19.67H187.94Z" transform="translate(251.274 62.163)" fill="#94A3B8"></path><path id="Trazado_539" data-name="Trazado 539" d="M208.612,49h-8.053v-2.5h18.848V49h-8.053V70.484h-2.741Z" transform="translate(268.145 62.163)" fill="#94A3B8"></path><rect id="Rect&#xE1;ngulo_197" data-name="Rect&#xE1;ngulo 197" width="2.706" height="23.989" transform="translate(496.991 108.658)" fill="#94A3B8"></rect><path id="Trazado_540" data-name="Trazado 540" d="M218.591,46.494h2.536L236.24,65.721V46.494h2.638V70.484h-2.157l-15.49-19.67v19.67h-2.641Z" transform="translate(292.254 62.163)" fill="#94A3B8"></path><path id="Trazado_541" data-name="Trazado 541" d="M231.487,58.792v-.068c0-6.579,4.833-12.4,12.031-12.4a12.629,12.629,0,0,1,8.941,3.185l-1.746,2.057a10.211,10.211,0,0,0-7.3-2.744c-5.312,0-9.117,4.492-9.117,9.836v.07c0,5.723,3.667,9.972,9.5,9.972a11.3,11.3,0,0,0,6.922-2.4V60.334h-7.3V57.9h9.9v9.561a14.529,14.529,0,0,1-9.631,3.667c-7.539,0-12.2-5.483-12.2-12.337" transform="translate(309.496 61.929)" fill="#94A3B8"></path><path id="Trazado_542" data-name="Trazado 542" d="M142.949,5.041l-33.47,71.722H128.32l4.3-9.369H161.98l4.4,9.369h18.839L151.461,5.041Zm-2.963,46.476,7.361-15.779,7.268,15.779Z" transform="translate(146.372 6.74)" fill="#94A3B8"></path><path id="Trazado_543" data-name="Trazado 543" d="M183.76,31.626,154.5,5.041h-8.514V76.763h18.934V40.042L183.76,57.064,202.5,39.946V76.763h18.934V5.041h-8.511Z" transform="translate(195.181 6.74)" fill="#94A3B8"></path><path id="Trazado_544" data-name="Trazado 544" d="M214.674,5.041H184.457V76.763H203.3V57.731h11.762a26.346,26.346,0,0,0-.383-52.69m.287,36.434H203.3V20.914h11.666a10.281,10.281,0,1,1,0,20.561" transform="translate(246.617 6.74)" fill="#94A3B8"></path><path id="Trazado_545" data-name="Trazado 545" d="M212.369,23.744h18.649V76.82h18.839V23.744h19.03V5H212.369Z" transform="translate(283.935 6.685)" fill="#94A3B8"></path><path id="Trazado_546" data-name="Trazado 546" d="M275.639,5.041A35.862,35.862,0,1,0,311.5,41,35.877,35.877,0,0,0,275.639,5.041m0,52.98A17.117,17.117,0,1,1,292.755,40.9a17.14,17.14,0,0,1-17.116,17.116" transform="translate(320.705 6.74)" fill="#94A3B8"></path><path id="Trazado_547" data-name="Trazado 547" d="M317.733,5.041V38.894L283.786,5.041h-7.654V76.763h18.841V42.816l33.854,33.947h7.747V5.041Z" transform="translate(369.186 6.74)" fill="#94A3B8"></path><path id="Trazado_548" data-name="Trazado 548" d="M130.1,5.041h-.089V30.575H107.341V5.041H88.5V30.575H72.732V49.413H88.5v19.61h18.838V49.413h22.671v27.35h18.93V5.041H130.1Z" transform="translate(97.242 6.74)" fill="#94A3B8"></path></g></g></svg>