<svg xmlns="http://www.w3.org/2000/svg" xmlns:xlink="http://www.w3.org/1999/xlink" width="500" zoomAndPan="magnify" viewBox="0 0 375 374.999991" height="500" preserveAspectRatio="xMidYMid meet" version="1.0"><defs><clipPath id="e2a3b58d8b"><path d="M 53.605469 113 L 226 113 L 226 304 L 53.605469 304 Z M 53.605469 113 " clip-rule="nonzero"/></clipPath><clipPath id="523e244a9d"><path d="M 53.605469 58 L 191 58 L 191 182 L 53.605469 182 Z M 53.605469 58 " clip-rule="nonzero"/></clipPath><clipPath id="66e45c3efc"><path d="M 148 69 L 316 69 L 316 317.828125 L 148 317.828125 Z M 148 69 " clip-rule="nonzero"/></clipPath><clipPath id="8f04752ca2"><path d="M 53.605469 113 L 226 113 L 226 304 L 53.605469 304 Z M 53.605469 113 " clip-rule="nonzero"/></clipPath><clipPath id="ab557fab38"><path d="M 53.605469 58 L 191 58 L 191 182 L 53.605469 182 Z M 53.605469 58 " clip-rule="nonzero"/></clipPath><clipPath id="5fc9d53372"><path d="M 148 69 L 316 69 L 316 317.828125 L 148 317.828125 Z M 148 69 " clip-rule="nonzero"/></clipPath></defs><g clip-path="url(#e2a3b58d8b)"><path fill="#9f1239" d="M 192.367188 303.851562 C 199.753906 295.332031 205.960938 289.113281 225.285156 272.652344 C 215.253906 240.800781 181.316406 212.980469 129.800781 178.421875 C 79.65625 144.773438 65.871094 128.347656 75.179688 113.324219 C 73.578125 115.984375 71.347656 119.480469 69.851562 122.199219 C 63.859375 134.210938 63.625 134.679688 61 142.066406 C 56.996094 155.125 56.839844 155.636719 55.480469 163.371094 C 54.75 168.941406 53.945312 176.394531 53.613281 182 C 55.082031 203.535156 77.863281 217.898438 125.117188 245.800781 C 155.011719 263.453125 188.894531 283.457031 192.367188 303.851562 " fill-opacity="1" fill-rule="nonzero"/></g><path fill="#9f1239" d="M 186.355469 313.8125 C 184.578125 301.90625 157.34375 287.941406 122.871094 270.269531 C 80.789062 248.691406 64.789062 238.359375 58.847656 223.328125 C 60.175781 227.292969 61.910156 232.585938 63.441406 236.46875 C 69.003906 248.664062 69.222656 249.136719 73.289062 255.796875 L 75.328125 258.992188 C 84.558594 270.753906 99.828125 278.085938 144.132812 295.582031 C 159.703125 301.734375 177.351562 308.703125 186.355469 313.8125 " fill-opacity="1" fill-rule="nonzero"/><path fill="#9f1239" d="M 186.355469 313.8125 C 117.363281 292.921875 100.972656 287.957031 89.234375 276.6875 C 92.960938 280.402344 98.050781 285.238281 102.015625 288.703125 C 110.949219 295.5625 112.320312 296.617188 120.972656 301.753906 L 126.976562 304.960938 C 137.183594 309.34375 157.160156 312.320312 186.355469 313.8125 " fill-opacity="1" fill-rule="nonzero"/><g clip-path="url(#523e244a9d)"><path fill="#e11d48" d="M 53.613281 181.996094 C 54.007812 176.398438 54.691406 168.933594 55.480469 163.371094 C 58.398438 149.6875 58.453125 149.425781 61 142.066406 C 65.941406 129.546875 66.132812 129.058594 69.851562 122.199219 C 71.449219 119.535156 73.480469 115.925781 75.179688 113.324219 C 83.953125 102 97.460938 95.351562 131.109375 82.304688 C 151.605469 74.359375 174.835938 65.351562 186.832031 58.25 C 206.40625 75.101562 148.445312 108.976562 113.816406 129.214844 C 72.914062 153.117188 55.980469 163.011719 53.613281 182 " fill-opacity="1" fill-rule="nonzero"/></g><path fill="#e11d48" d="M 75.328125 258.992188 L 73.289062 255.796875 C 66.707031 244.15625 66.449219 243.703125 63.441406 236.46875 C 62.011719 232.542969 60.070312 227.324219 58.847656 223.328125 C 55.441406 204.488281 72.089844 191.523438 116.996094 161.902344 C 206.140625 103.109375 229.636719 68.234375 186.832031 58.25 C 222.234375 62.21875 265.453125 88.914062 175.59375 161.550781 C 145.972656 185.496094 112.53125 204.476562 85.042969 231.1875 C 68.863281 246.914062 72.296875 253.328125 75.328125 258.992188 " fill-opacity="1" fill-rule="nonzero"/><path fill="#e11d48" d="M 211.085938 57.621094 C 243.835938 63.582031 369.445312 122.136719 175.90625 256.511719 C 115.910156 298.167969 115.910156 298.167969 126.976562 304.960938 L 120.972656 301.753906 C 111.886719 296.179688 109.996094 295.019531 102.015625 288.703125 C 98.074219 285.214844 92.9375 280.425781 89.234375 276.6875 C 78.464844 262.640625 93.867188 251.121094 144.90625 212.957031 C 342.5625 65.160156 188.476562 58.25 186.832031 58.25 C 195.144531 57.128906 203.253906 56.945312 211.085938 57.621094 " fill-opacity="1" fill-rule="nonzero"/><g clip-path="url(#66e45c3efc)"><path fill="#e11d48" d="M 252.210938 70.308594 C 261 75.699219 266.804688 79.265625 276.855469 88.316406 C 285.75 97.148438 286.476562 97.871094 291.695312 104.460938 C 299.28125 115.011719 299.734375 115.640625 303.574219 122.609375 C 305.019531 125.53125 307.042969 129.382812 308.367188 132.355469 C 325.214844 175.644531 309.734375 210.1875 293.785156 231.542969 C 283.003906 245.976562 257.753906 279.785156 175.890625 315.09375 C 170.179688 317.558594 170.171875 317.566406 169.703125 318.003906 L 167.179688 317.660156 C 162.367188 316.878906 162.179688 316.851562 159.578125 316.3125 C 156.96875 315.726562 153.503906 314.886719 150.917969 314.210938 C 149.921875 313.8125 148.886719 312.617188 148.433594 311.640625 C 150.339844 308.136719 153.753906 305.761719 174.535156 293.476562 C 208.65625 273.308594 272.164062 235.769531 293.257812 185.925781 C 320.523438 121.484375 278.40625 85.359375 250.871094 69.5625 C 251.320312 69.804688 251.765625 70.054688 252.210938 70.308594 " fill-opacity="1" fill-rule="nonzero"/></g><g clip-path="url(#8f04752ca2)"><path fill="#9f1239" d="M 192.367188 303.851562 C 199.753906 295.332031 205.960938 289.113281 225.285156 272.652344 C 215.253906 240.800781 181.316406 212.980469 129.800781 178.421875 C 79.65625 144.773438 65.871094 128.347656 75.179688 113.324219 C 73.578125 115.984375 71.347656 119.480469 69.851562 122.199219 C 63.859375 134.210938 63.625 134.679688 61 142.066406 C 56.996094 155.125 56.839844 155.636719 55.480469 163.371094 C 54.75 168.941406 53.945312 176.394531 53.613281 182 C 55.082031 203.535156 77.863281 217.898438 125.117188 245.800781 C 155.011719 263.453125 188.894531 283.457031 192.367188 303.851562 " fill-opacity="1" fill-rule="nonzero"/></g><path fill="#9f1239" d="M 186.355469 313.8125 C 184.578125 301.90625 157.34375 287.941406 122.871094 270.269531 C 80.789062 248.691406 64.789062 238.359375 58.847656 223.328125 C 60.175781 227.292969 61.910156 232.585938 63.441406 236.46875 C 69.003906 248.664062 69.222656 249.136719 73.289062 255.796875 L 75.328125 258.992188 C 84.558594 270.753906 99.828125 278.085938 144.132812 295.582031 C 159.703125 301.734375 177.351562 308.703125 186.355469 313.8125 " fill-opacity="1" fill-rule="nonzero"/><path fill="#9f1239" d="M 186.355469 313.8125 C 117.363281 292.921875 100.972656 287.957031 89.234375 276.6875 C 92.960938 280.402344 98.050781 285.238281 102.015625 288.703125 C 110.949219 295.5625 112.320312 296.617188 120.972656 301.753906 L 126.976562 304.960938 C 137.183594 309.34375 157.160156 312.320312 186.355469 313.8125 " fill-opacity="1" fill-rule="nonzero"/><g clip-path="url(#ab557fab38)"><path fill="#e11d48" d="M 53.613281 181.996094 C 54.007812 176.398438 54.691406 168.933594 55.480469 163.371094 C 58.398438 149.6875 58.453125 149.425781 61 142.066406 C 65.941406 129.546875 66.132812 129.058594 69.851562 122.199219 C 71.449219 119.535156 73.480469 115.925781 75.179688 113.324219 C 83.953125 102 97.460938 95.351562 131.109375 82.304688 C 151.605469 74.359375 174.835938 65.351562 186.832031 58.25 C 206.40625 75.101562 148.445312 108.976562 113.816406 129.214844 C 72.914062 153.117188 55.980469 163.011719 53.613281 182 " fill-opacity="1" fill-rule="nonzero"/></g><path fill="#e11d48" d="M 75.328125 258.992188 L 73.289062 255.796875 C 66.707031 244.15625 66.449219 243.703125 63.441406 236.46875 C 62.011719 232.542969 60.070312 227.324219 58.847656 223.328125 C 55.441406 204.488281 72.089844 191.523438 116.996094 161.902344 C 206.140625 103.109375 229.636719 68.234375 186.832031 58.25 C 222.234375 62.21875 265.453125 88.914062 175.59375 161.550781 C 145.972656 185.496094 112.53125 204.476562 85.042969 231.1875 C 68.863281 246.914062 72.296875 253.328125 75.328125 258.992188 " fill-opacity="1" fill-rule="nonzero"/><path fill="#e11d48" d="M 211.085938 57.621094 C 243.835938 63.582031 369.445312 122.136719 175.90625 256.511719 C 115.910156 298.167969 115.910156 298.167969 126.976562 304.960938 L 120.972656 301.753906 C 111.886719 296.179688 109.996094 295.019531 102.015625 288.703125 C 98.074219 285.214844 92.9375 280.425781 89.234375 276.6875 C 78.464844 262.640625 93.867188 251.121094 144.90625 212.957031 C 342.5625 65.160156 188.476562 58.25 186.832031 58.25 C 195.144531 57.128906 203.253906 56.945312 211.085938 57.621094 " fill-opacity="1" fill-rule="nonzero"/><g clip-path="url(#5fc9d53372)"><path fill="#e11d48" d="M 252.210938 70.308594 C 261 75.699219 266.804688 79.265625 276.855469 88.316406 C 285.75 97.148438 286.476562 97.871094 291.695312 104.460938 C 299.28125 115.011719 299.734375 115.640625 303.574219 122.609375 C 305.019531 125.53125 307.042969 129.382812 308.367188 132.355469 C 325.214844 175.644531 309.734375 210.1875 293.785156 231.542969 C 283.003906 245.976562 257.753906 279.785156 175.890625 315.09375 C 170.179688 317.558594 170.171875 317.566406 169.703125 318.003906 L 167.179688 317.660156 C 162.367188 316.878906 162.179688 316.851562 159.578125 316.3125 C 156.96875 315.726562 153.503906 314.886719 150.917969 314.210938 C 149.921875 313.8125 148.886719 312.617188 148.433594 311.640625 C 150.339844 308.136719 153.753906 305.761719 174.535156 293.476562 C 208.65625 273.308594 272.164062 235.769531 293.257812 185.925781 C 320.523438 121.484375 278.40625 85.359375 250.871094 69.5625 C 251.320312 69.804688 251.765625 70.054688 252.210938 70.308594 " fill-opacity="1" fill-rule="nonzero"/></g></svg>