<?xml version="1.0" standalone="no"?>
<!DOCTYPE svg PUBLIC "-//W3C//DTD SVG 20010904//EN"
 "http://www.w3.org/TR/2001/REC-SVG-20010904/DTD/svg10.dtd">
<svg version="1.0" xmlns="http://www.w3.org/2000/svg"
 width="144" height="48" viewBox="0 0 933.000000 264.000000"
 preserveAspectRatio="xMidYMid meet">
<metadata>
Created by potrace 1.16, written by Peter Selinger 2001-2019
</metadata>
<g transform="translate(0.000000,264.000000) scale(0.100000,-0.100000)"
fill="#94A3B8" stroke="none">
<path d="M6720 1590 l0 -1050 215 0 215 0 0 1050 0 1050 -215 0 -215 0 0
-1050z"/>
<path d="M4310 1672 c0 -726 2 -856 15 -906 34 -130 120 -201 282 -232 77 -14
303 -19 387 -8 l46 7 0 166 0 167 -102 -4 c-115 -4 -162 11 -185 58 -10 19
-13 129 -13 443 l0 417 150 0 150 0 0 140 0 140 -150 0 -150 0 0 230 0 230
-215 0 -215 0 0 -848z"/>
<path d="M295 2293 c-10 -49 -20 -92 -23 -97 -3 -5 -6 -21 -8 -35 -3 -33 -143
-681 -151 -701 -3 -8 -6 -18 -5 -22 1 -3 -23 -119 -53 -258 -30 -138 -55 -257
-55 -266 0 -12 36 -14 257 -12 l258 3 152 700 c83 385 155 717 158 738 l7 37
-260 0 -259 0 -18 -87z"/>
<path d="M925 2368 c-3 -7 -57 -254 -121 -548 -128 -595 -242 -1114 -250
-1145 -3 -11 -7 -29 -9 -40 -2 -11 -6 -35 -10 -52 l-7 -33 261 0 261 0 5 23
c27 117 385 1784 385 1794 0 19 -508 19 -515 1z"/>
<path d="M3240 2089 c-124 -27 -226 -76 -292 -142 -117 -115 -158 -302 -102
-462 23 -67 108 -150 196 -193 37 -18 138 -50 230 -73 382 -94 443 -117 486
-179 40 -59 22 -146 -40 -193 -55 -42 -114 -59 -206 -59 -105 1 -176 22 -230
68 -49 41 -70 78 -80 137 l-8 42 -202 3 -202 2 0 -37 c0 -104 58 -234 142
-317 76 -75 170 -125 293 -157 80 -21 112 -24 285 -24 169 1 206 4 278 23 285
75 437 269 419 534 -15 221 -161 334 -532 413 -262 56 -340 83 -391 136 -24
25 -29 39 -29 79 0 75 45 113 157 131 75 12 182 -1 243 -31 48 -23 89 -80 101
-138 l7 -32 203 0 c112 0 204 3 204 8 0 4 -7 36 -14 72 -33 153 -121 268 -256
333 -124 59 -174 69 -380 73 -159 3 -199 1 -280 -17z"/>
<path d="M7908 2100 c-426 -48 -715 -433 -668 -892 14 -135 33 -206 87 -318
39 -81 58 -108 132 -180 65 -64 104 -94 161 -122 144 -70 229 -88 416 -88 266
0 460 96 590 292 37 56 104 193 104 214 0 2 -84 4 -187 3 l-188 0 -30 -46
c-63 -97 -180 -148 -323 -141 -144 7 -237 61 -293 169 -19 39 -48 152 -49 192
0 16 33 17 550 17 l550 0 0 58 c0 157 -38 329 -100 457 -140 284 -410 422
-752 385z m259 -356 c75 -46 129 -132 157 -246 l6 -28 -336 0 -336 0 7 38 c17
91 73 178 143 219 79 46 110 54 214 50 87 -4 103 -7 145 -33z"/>
<path d="M5100 2052 c0 -5 120 -328 266 -718 147 -390 271 -727 276 -749 19
-84 -24 -179 -96 -212 -41 -18 -120 -21 -248 -7 l-58 6 0 -175 c0 -97 4 -178
8 -181 5 -3 80 -8 168 -12 253 -9 386 28 491 139 69 73 94 125 227 483 63 170
209 562 324 872 l209 562 -222 0 -222 0 -30 -92 c-16 -51 -90 -283 -164 -515
-74 -232 -136 -417 -139 -410 -2 7 -79 237 -170 512 l-166 500 -227 3 c-125 1
-227 -1 -227 -6z"/>
<path d="M2109 2033 l-36 -4 -47 -217 c-26 -119 -49 -228 -52 -242 -3 -14 -32
-149 -65 -300 -33 -151 -62 -286 -65 -300 -3 -14 -23 -107 -45 -207 -21 -101
-39 -187 -39 -193 0 -6 90 -10 258 -10 l258 0 157 728 c87 400 157 733 157
740 0 9 -50 12 -222 10 -123 -1 -239 -3 -259 -5z"/>
<path d="M1658 2023 c-176 -3 -197 -5 -202 -21 -6 -18 -274 -1251 -282 -1292
-6 -35 -25 -121 -31 -142 -4 -17 13 -18 256 -18 l261 0 5 22 c3 13 73 336 155
718 82 382 152 705 155 718 5 21 3 22 -57 20 -35 -2 -152 -4 -260 -5z"/>
<path d="M8865 1995 c-19 -18 -25 -35 -25 -69 0 -37 5 -48 31 -70 95 -80 212
50 127 142 -31 32 -100 31 -133 -3z m117 -15 c25 -26 29 -36 24 -63 -13 -70
-85 -89 -131 -35 -20 23 -25 38 -20 57 8 32 23 51 50 61 34 14 45 11 77 -20z"/>
<path d="M8870 780 l0 -230 230 0 230 0 0 230 0 230 -230 0 -230 0 0 -230z"/>
</g>
</svg>