<?xml version="1.0" standalone="no"?>
<!DOCTYPE svg PUBLIC "-//W3C//DTD SVG 20010904//EN"
 "http://www.w3.org/TR/2001/REC-SVG-20010904/DTD/svg10.dtd">
<svg version="1.0" xmlns="http://www.w3.org/2000/svg"
 width="144" height="48" viewBox="0 0 500.000000 105.000000"
 preserveAspectRatio="xMidYMid meet">

<g transform="translate(0.000000,105.000000) scale(0.100000,-0.100000)"
fill="#94A3B8" stroke="none">
<path d="M51 973 c325 -567 474 -822 480 -816 4 5 92 154 195 333 103 179 214
371 247 428 32 57 56 106 53 109 -3 4 -8 4 -10 2 -2 -2 -98 -166 -212 -363
-114 -198 -210 -354 -212 -348 -3 11 148 280 342 612 51 87 64 124 32 89 -7
-8 -98 -161 -201 -341 -159 -280 -205 -352 -205 -323 0 3 85 153 190 334 104
181 190 332 190 335 0 28 -41 -36 -194 -301 -208 -364 -193 -339 -201 -331 -6
5 185 346 335 601 12 21 17 37 12 37 -12 0 -29 -27 -223 -364 -79 -137 -145
-244 -147 -238 -4 14 -6 10 175 325 86 147 152 271 149 275 -9 8 -3 17 -137
-216 -61 -106 -115 -190 -119 -185 -8 7 -166 278 -214 365 -12 21 -26 38 -33
38 -7 0 44 -97 113 -216 115 -200 145 -260 110 -224 -8 8 -66 107 -131 220
-117 207 -131 228 -139 219 -4 -4 204 -376 254 -456 8 -12 11 -26 7 -30 -5 -4
-11 -2 -15 5 -174 305 -279 482 -289 482 -6 0 56 -116 137 -257 82 -141 146
-261 143 -266 -3 -4 -6 -7 -8 -5 -2 2 -69 118 -150 258 -80 140 -150 259 -155
264 -34 34 0 -32 135 -269 85 -148 155 -276 155 -285 -1 -19 -20 13 -193 313
-78 136 -148 247 -155 247 -10 0 -9 -5 2 -22 46 -73 416 -721 416 -729 0 -27
-24 7 -113 164 -216 380 -335 581 -347 585 -7 3 -10 1 -8 -4 241 -415 449
-786 444 -791 -3 -4 -8 -4 -10 -2 -2 2 -106 182 -231 399 -124 217 -228 397
-231 399 -42 42 166 -335 435 -791 12 -20 18 -39 13 -41 -8 -5 -73 104 -365
612 -68 118 -130 217 -137 219 -7 3 2 -22 21 -55z"/>
<path d="M1027 973 c-98 -162 -487 -846 -487 -856 0 -21 26 16 87 123 50 88
436 759 450 783 2 4 0 7 -6 7 -5 0 -25 -26 -44 -57z"/>
<path d="M910 693 c-107 -186 -229 -398 -272 -472 -43 -74 -75 -138 -71 -142
4 -4 72 103 149 239 78 136 199 346 269 467 139 240 142 245 128 245 -6 0 -97
-152 -203 -337z"/>
<path d="M1136 1008 c-16 -28 -189 -326 -400 -693 -85 -148 -152 -273 -149
-278 7 -12 2 -21 288 478 141 248 266 465 277 483 11 17 15 32 9 32 -6 0 -17
-10 -25 -22z"/>
<path d="M1402 942 c13 -32 64 -165 113 -295 50 -131 92 -237 95 -237 3 0 50
118 104 263 55 144 106 277 113 295 l14 33 -36 -3 c-41 -3 -35 10 -143 -288
-46 -124 -51 -133 -61 -110 -6 14 -42 108 -80 210 l-68 185 -37 3 -36 3 22
-59z"/>
<path d="M1982 718 l3 -283 148 -3 147 -3 0 31 0 30 -115 0 -115 0 0 115 0
115 110 0 110 0 0 30 0 30 -110 0 -110 0 0 80 0 80 115 0 115 0 0 30 0 30
-150 0 -150 0 2 -282z"/>
<path d="M2460 716 l0 -286 30 0 30 0 0 126 c0 96 3 125 13 122 6 -3 50 -59
96 -126 79 -115 86 -122 118 -122 18 0 33 4 33 9 0 4 -38 62 -84 127 l-85 119
27 9 c97 32 140 134 94 225 -31 62 -61 76 -173 79 l-99 4 0 -286z m193 204
c32 -26 44 -78 25 -117 -16 -35 -70 -63 -120 -63 l-38 0 0 100 0 100 54 0 c39
0 60 -6 79 -20z"/>
<path d="M2890 970 l0 -30 65 0 65 0 2 -252 3 -253 33 -3 32 -3 0 255 0 255
68 3 c65 3 67 4 70 31 l3 27 -170 0 -171 0 0 -30z"/>
<path d="M3380 715 l0 -285 30 0 30 0 0 285 0 285 -30 0 -30 0 0 -285z"/>
<path d="M3650 715 l0 -285 110 0 110 0 0 30 0 30 -75 0 -75 0 0 255 0 255
-35 0 -35 0 0 -285z"/>
<path d="M4022 783 c3 -248 10 -274 80 -321 48 -31 140 -41 199 -22 49 16 104
76 118 127 6 21 11 127 11 236 l0 197 -35 0 -35 0 0 -212 c-1 -231 -3 -244
-56 -279 -36 -23 -113 -25 -154 -4 -55 28 -60 53 -60 285 l0 210 -36 0 -35 0
3 -217z"/>
<path d="M4604 984 c4 -9 36 -68 71 -131 36 -63 65 -118 65 -122 0 -5 -36 -71
-80 -147 -44 -76 -80 -142 -80 -146 0 -5 15 -8 33 -8 32 0 36 4 98 115 35 63
66 115 69 115 3 0 34 -52 69 -115 61 -112 64 -115 97 -115 19 0 34 3 34 6 0 3
-36 70 -81 149 l-81 144 76 133 c76 132 76 133 50 136 -14 2 -32 1 -39 -2 -7
-2 -37 -48 -66 -100 -29 -53 -55 -96 -58 -96 -3 0 -30 45 -60 100 -52 97 -55
100 -89 100 -28 0 -33 -3 -28 -16z"/>
<path d="M1900 95 l0 -65 33 0 c43 0 57 15 57 60 0 43 -24 70 -63 70 -26 0
-27 -1 -27 -65z m64 39 c33 -33 17 -94 -25 -94 -28 0 -29 1 -29 55 0 48 3 55
19 55 11 0 27 -7 35 -16z"/>
<path d="M2070 95 l0 -65 38 2 c36 1 36 1 5 5 -27 4 -33 9 -33 28 0 18 6 25
28 28 l27 4 -27 2 c-23 1 -28 6 -28 25 0 20 6 25 33 29 31 4 31 4 -5 5 l-38 2
0 -65z"/>
<path d="M2246 149 c-3 -8 -14 -38 -25 -66 -10 -29 -15 -53 -10 -53 5 0 9 7 9
15 0 22 56 20 69 -3 17 -29 12 0 -10 58 -24 64 -27 68 -33 49z m12 -77 c-28
-5 -30 0 -16 39 l11 33 12 -34 c11 -32 10 -35 -7 -38z"/>
<path d="M2376 144 c-20 -19 -5 -54 23 -54 23 0 45 -25 36 -41 -5 -7 -21 -9
-41 -6 -21 4 -32 2 -29 -4 4 -5 21 -9 40 -9 26 0 35 5 41 22 7 24 -17 48 -49
48 -13 0 -18 6 -15 23 2 18 9 22 33 20 22 -2 26 0 15 7 -21 14 -36 12 -54 -6z"/>
<path d="M2617 153 c-11 -10 -8 -123 3 -123 6 0 10 11 10 25 0 20 5 25 25 25
14 0 25 5 25 10 0 6 -11 10 -25 10 -20 0 -25 5 -25 24 0 20 6 25 33 29 l32 4
-36 1 c-20 1 -39 -1 -42 -5z"/>
<path d="M2766 138 c-35 -49 -11 -112 39 -106 28 3 30 6 33 51 5 73 -37 105
-72 55z m52 3 c9 -5 12 -24 10 -52 -3 -40 -6 -44 -30 -47 -27 -3 -28 -2 -28
47 0 44 6 57 30 60 3 0 11 -3 18 -8z"/>
<path d="M2922 93 c0 -38 3 -53 5 -35 5 41 28 42 51 2 22 -39 37 -39 17 0 -9
17 -11 30 -6 30 5 0 13 10 17 22 8 27 -17 48 -58 48 l-28 0 2 -67z m68 42 c17
-20 4 -35 -31 -35 -24 0 -29 4 -29 25 0 20 5 25 24 25 13 0 29 -7 36 -15z"/>
<path d="M3160 155 c0 -3 8 -20 17 -38 9 -18 20 -45 24 -62 l7 -30 1 33 c1 18
8 47 17 63 8 17 13 33 11 35 -2 3 -10 -9 -17 -26 -10 -24 -15 -28 -26 -19 -8
6 -14 17 -14 25 0 7 -4 16 -10 19 -5 3 -10 3 -10 0z"/>
<path d="M3317 142 c-31 -34 -15 -112 23 -112 41 0 50 11 50 61 0 38 -4 51
-19 59 -27 14 -35 13 -54 -8z m52 -6 c7 -8 11 -32 9 -53 -3 -33 -7 -38 -29
-41 -22 -3 -28 2 -33 23 -14 57 24 107 53 71z"/>
<path d="M3472 109 c-2 -59 9 -79 43 -79 34 0 45 20 43 79 -1 45 -2 48 -5 16
-7 -77 -11 -87 -41 -83 -25 3 -27 7 -33 63 l-6 60 -1 -56z"/>
<path d="M3642 93 c0 -38 3 -53 5 -35 3 19 10 32 19 32 8 0 23 -15 34 -32 21
-35 28 -31 9 3 -8 16 -7 25 5 38 9 10 16 20 16 24 0 16 -35 37 -61 37 l-29 0
2 -67z m66 30 c3 -20 -1 -23 -27 -23 -27 0 -31 4 -31 26 0 22 4 25 28 22 19
-2 28 -9 30 -25z"/>
<path d="M3902 151 c-8 -4 -12 -19 -10 -32 2 -16 12 -25 36 -31 45 -12 41 -43
-6 -43 -17 0 -32 -3 -32 -8 0 -5 17 -7 38 -5 32 3 37 6 37 28 0 20 -7 27 -33
35 -25 7 -32 14 -30 30 2 15 10 20 31 18 15 -1 25 2 22 8 -8 11 -35 12 -53 0z"/>
<path d="M4047 154 c-11 -11 -8 -124 3 -124 6 0 10 11 10 24 0 19 6 25 26 28
35 4 53 31 38 56 -11 17 -64 29 -77 16z m61 -13 c23 -14 10 -46 -21 -49 -24
-3 -27 0 -27 27 0 32 19 41 48 22z"/>
<path d="M4206 107 c-29 -81 -30 -84 -13 -64 18 22 63 22 71 1 4 -9 9 -15 11
-12 5 5 -33 109 -44 120 -3 4 -15 -16 -25 -45z m38 1 c9 -35 8 -38 -14 -38
-11 0 -20 3 -20 8 0 19 13 52 20 52 4 0 10 -10 14 -22z"/>
<path d="M4356 144 c-19 -18 -21 -85 -4 -102 14 -14 54 -16 62 -3 3 4 -6 6
-20 3 -31 -6 -44 10 -44 54 0 38 21 58 52 49 18 -5 20 -4 8 4 -21 15 -36 14
-54 -5z"/>
<path d="M4500 95 l0 -65 43 2 42 1 -37 4 c-32 4 -38 8 -38 28 0 19 6 24 33
28 l32 4 -32 1 c-28 2 -33 6 -33 26 0 21 5 25 38 29 l37 4 -42 1 -43 2 0 -65z"/>
<path d="M1813 90 c0 -36 2 -50 4 -32 2 17 2 47 0 65 -2 17 -4 3 -4 -33z"/>
</g>
</svg>